<?xml version="1.0" encoding="utf-8"?>
<!-- Generator: Adobe Illustrator 15.1.0, SVG Export Plug-In . SVG Version: 6.00 Build 0)  -->
<!DOCTYPE svg PUBLIC "-//W3C//DTD SVG 1.1//EN" "http://www.w3.org/Graphics/SVG/1.1/DTD/svg11.dtd">
<svg version="1.1" id="Livello_1" xmlns="http://www.w3.org/2000/svg" xmlns:xlink="http://www.w3.org/1999/xlink" x="0px" y="0px"
	 width="720px" height="720px" viewBox="0 0 720 720" enable-background="new 0 0 720 720" xml:space="preserve">
<g>
	<path id="black" d="M698.625,332.512c-2.727-6.272-18.072-39.147-52.468-70.479c-37.245-33.929-82.14-53.271-133.435-57.488
		c-1.765-0.146-3.518-0.279-5.262-0.405c-0.104-0.008-0.209-0.014-0.313-0.021c-50.24-3.603-91.461,0.599-121.033,6.06
		c-7.347-25.692-20.213-62.693-36.976-79.107c-1.393-1.762-8.353-9.792-19.528-9.792c-7.585,0-15.245,3.688-22.762,10.96
		c-15.741,15.194-38.793,54.065-44.377,63.663c-0.744-0.006-1.484-0.009-2.22-0.01c-0.042,0-0.086-0.001-0.129-0.001
		c-1.597,0-3.174,0.019-4.738,0.046c-0.104,0.002-0.207,0.003-0.311,0.005c-1.58,0.031-3.142,0.075-4.687,0.132
		c-0.06,0.003-0.119,0.005-0.179,0.007c-48.241,1.835-80.072,16.595-89.426,21.517c-5.237-5.086-19.004-17.978-34.688-28.786
		c-12.537-8.596-25.805-13.527-36.397-13.527c-4.588,0-8.612,0.92-11.966,2.737c-15.81,8.584-22.038,33.668-18.512,74.557
		c2.269,26.318,7.998,51.095,9.243,56.273c-1.21,5.245-6.796,30.604-9.074,61.132c-1.318,17.667-1.348,33.769-0.104,48.261
		C30,419.104,4.73,424.318,3.275,424.623c-2.228,0.467-3.654,2.65-3.187,4.878c0.407,1.942,2.12,3.275,4.028,3.275
		c0.281,0,0.565-0.029,0.85-0.089c0.351-0.073,26.018-5.369,55.188-6.188c0.753,6.011,1.743,11.72,2.975,17.115
		c-39.691,9.619-59.149,23.302-60.146,24.018c-1.847,1.325-2.268,3.894-0.946,5.742c0.804,1.124,2.07,1.722,3.354,1.722
		c0.829,0,1.667-0.249,2.392-0.767c0.232-0.166,19.159-13.39,57.421-22.706c1.373,4.722,2.951,9.173,4.736,13.351
		c-0.243,1.825-0.459,3.7-0.646,5.617c-15.104,8.13-32.581,20.319-48.062,38.218c-1.489,1.722-1.301,4.324,0.42,5.813
		c0.78,0.674,1.739,1.004,2.694,1.004c1.155,0,2.303-0.482,3.118-1.424c13.084-15.126,27.862-26.007,41.181-33.692
		c-0.863,26.74,5.287,64.17,37.591,96.444c14.25,14.239,29.703,21.766,44.689,21.767c0.001,0,0.001,0,0.002,0
		c18.598,0,34.931-11.62,41.664-29.616c0.539-0.714,0.823-1.566,0.832-2.438c2.805-8.978,2.643-18.098-0.238-26.359
		c0.181,0.006,0.357,0.018,0.538,0.022c0,0,0.973,0.022,2.8,0.022c0.001,0,0.002,0,0.004,0c9.922,0,38.986-0.624,74.664-6.96
		c-0.625,3.972-0.602,7.993,0.044,12.048c0,0.45,0.09,0.888,0.232,1.308c0.766,3.982,2.13,7.995,4.115,12.027
		c4.502,9.147,11.952,15.235,22.142,18.097c4.505,1.265,9.48,1.854,14.851,1.854c25.422,0,59.612-13.232,93.778-30.781
		c6.699,9.252,16.802,17.771,29.661,24.839c20.051,11.02,60.79,22.972,103.413,24.423c2.842,0.097,5.691,0.146,8.544,0.146
		c13.944,0,27.96-1.196,41.386-3.985C661.47,578.402,707.33,531.79,718.49,462.114c0.005-0.034,0.002-0.066,0.006-0.1
		c0.006-0.04,0.019-0.075,0.023-0.114C723.27,417.336,716.576,373.804,698.625,332.512z"/>
	<g id="grey_1_">
		<g>
			<path fill="#BBBCC3" d="M125.698,524.055c-20.069-10.39-36.446-25.748-48.741-45.656c-1.809,36.466,9.993,67.667,35.09,92.74
				c12.675,12.665,26.12,19.359,38.88,19.36c5.243,0.001,10.269-1.145,14.828-3.253c-2.167-1.527-4.102-3.302-5.774-5.213
				c-1.528-1.741-2.869-3.597-4.048-5.528c-0.589-0.966-1.139-1.95-1.646-2.957c-0.514-1.025-0.964-1.994-1.413-3.157
				s0.131-2.468,1.293-2.916c1.055-0.407,2.229,0.032,2.771,0.987L157,568.57c0.432,0.758,1,1.644,1.563,2.437
				c0.571,0.81,1.176,1.598,1.808,2.356c1.265,1.516,2.638,2.921,4.104,4.161c2.726,2.319,5.788,4.034,8.949,4.903
				c4.844-3.975,8.737-9.266,11.21-15.535c-1.533-2.252-3.506-4.324-5.766-6.145c-1.414-1.142-2.936-2.19-4.53-3.139
				c-0.797-0.475-1.614-0.923-2.442-1.342c-0.811-0.411-1.709-0.824-2.458-1.127l-0.119-0.048c-1.28-0.519-1.897-1.977-1.379-3.256
				c0.474-1.17,1.733-1.785,2.924-1.486c1.143,0.286,2.095,0.586,3.113,0.933c0.999,0.345,1.983,0.724,2.958,1.136
				c1.947,0.825,3.851,1.782,5.694,2.895c1.478,0.892,2.919,1.894,4.299,3.004c0.916-6.491-0.054-12.814-2.771-18.506
				C162.233,538.097,142.612,532.812,125.698,524.055z"/>
			<path fill="#BBBCC3" d="M384.392,412.813c-2.339,0.5-4.646-1.002-5.141-3.345c-0.496-2.344,1.001-4.646,3.345-5.142
				c1.76-0.372,29.058-6.004,61.214-4.681c1.649-7.018,2.729-14.432,2.921-22.104c-17.158,1.524-38.188,5.096-62.642,12.402
				c-0.413,0.125-0.832,0.184-1.243,0.184c-1.867,0-3.592-1.215-4.153-3.097c-0.687-2.295,0.618-4.711,2.913-5.396
				c25.426-7.6,47.193-11.307,64.941-12.871c-0.349-5.238-1.137-10.563-2.478-15.934c-0.89-3.575-1.886-7.123-2.966-10.637
				c-19.009,5.064-40.246,13.47-60.559,27.365c-0.749,0.512-1.602,0.758-2.445,0.758c-1.383,0-2.743-0.661-3.584-1.89
				c-1.352-1.977-0.846-4.676,1.132-6.028c21.196-14.5,43.096-23.291,62.695-28.594c-17.892-51.008-52.133-92.628-52.519-93.093
				c-0.424-0.51-0.719-1.116-0.857-1.765c-0.167-0.78-17.011-78.257-41.76-102.177c-0.172-0.167-0.329-0.347-0.469-0.541
				c-0.036-0.049-5.1-6.728-13.126-6.728c-5.378,0-11.115,2.911-17.051,8.651c-16.799,16.216-43.895,63.458-44.166,63.934
				c-0.733,1.281-2.096,2.07-3.568,2.07c-0.025,0-0.049,0-0.074,0c-63.143-1.165-102.179,21.828-102.556,22.055
				c-1.626,0.976-3.708,0.71-5.039-0.639c-0.166-0.167-16.78-16.931-35.718-29.982c-11.03-7.563-22.899-12.081-31.742-12.081
				c-3.206,0-5.913,0.586-8.047,1.743c-25.851,14.036-12.357,93.246-4.975,122.583c0.163,0.648,0.165,1.328,0.007,1.978
				c-0.189,0.777-13.613,56.962-9.082,108.319c8.787,0.012,17.76,0.475,26.417,1.628c2.256,0.301,3.84,2.373,3.54,4.629
				s-2.375,3.84-4.629,3.54c-7.948-1.06-16.245-1.502-24.433-1.533c0.678,5.238,1.57,10.387,2.703,15.387
				c7.685-1.636,16.021-3.105,25.058-4.297c2.252-0.283,4.326,1.291,4.624,3.546c0.297,2.256-1.29,4.326-3.546,4.624
				c-8.667,1.143-16.674,2.558-24.068,4.132c1.629,5.564,3.612,10.872,5.997,15.828c15.335-7.067,26.49-9.576,27.437-9.781
				c2.219-0.474,4.417,0.929,4.9,3.154c0.481,2.223-0.929,4.415-3.151,4.898c-0.218,0.048-10.631,2.407-25.181,9.074
				c22.756,37.697,59.976,57.604,110.677,59.151c0.005,0,0.911,0.02,2.579,0.021c10.085,0,40.398-0.653,77.126-7.516
				c10.093-25.011,43.102-38.694,46.01-39.856c5.168-2.506,79.3-38.425,112.155-53.118c3.482-6.771,6.924-14.651,9.626-23.315
				C410.757,407.373,384.801,412.728,384.392,412.813z M106.207,271.322c-2.36,2.04-4.63,4.201-6.8,6.458
				c-4.344,4.514-8.293,9.416-11.79,14.614c-1.178,1.755-3.555,2.222-5.31,1.044s-2.223-3.555-1.044-5.31l0.002-0.004
				c3.746-5.569,7.971-10.813,12.626-15.651c2.328-2.419,4.763-4.738,7.313-6.942c1.276-1.102,2.579-2.174,3.922-3.214
				c0.671-0.52,1.352-1.032,2.048-1.536c0.276-0.198,0.543-0.387,0.813-0.577c-0.003-0.024-0.005-0.047-0.01-0.072
				c-0.058-0.267-0.265-0.705-0.739-1.263c-0.232-0.277-0.521-0.575-0.861-0.903l-1.246-1.186c-0.266-0.278-0.559-0.545-1.009-1.195
				c-0.217-0.353-0.538-0.795-0.75-1.785c-0.099-0.484-0.121-1.166,0.046-1.838c0.084-0.33,0.213-0.677,0.358-0.943
				c0.151-0.292,0.325-0.545,0.482-0.733c0.686-0.804,1.211-1.044,1.608-1.262c0.367-0.176,0.688-0.292,0.934-0.367
				c0.512-0.157,0.896-0.232,1.311-0.307c2.519-0.419,4.964-0.485,7.356-0.387c0.226,0.009,0.449,0.029,0.674,0.041
				c-0.481-1.054-0.991-2.111-1.539-3.165c-1.504-2.897-3.211-5.749-4.946-8.587c-3.497-5.667-7.354-11.167-11.431-16.422
				c-2.031-2.631-4.137-5.196-6.337-7.591c-1.101-1.192-2.226-2.345-3.371-3.396c-1.13-1.037-2.335-2.015-3.354-2.601
				c-0.242-0.141-0.495-0.264-0.623-0.314c-0.225-0.087-0.494-0.175-0.715-0.224c-0.465-0.117-0.85-0.127-1.193-0.096
				c-0.341,0.042-0.65,0.146-1.004,0.333c-0.353,0.182-0.742,0.471-1.128,0.868c-1.61,1.555-3.062,4.532-4.178,7.212l-0.102,0.243
				c-0.604,1.453-2.272,2.14-3.726,1.535c-1.155-0.481-1.824-1.639-1.747-2.821c0.072-1.073,0.193-1.955,0.396-2.912
				c0.189-0.942,0.459-1.869,0.775-2.804c0.666-1.855,1.581-3.726,3.084-5.484c0.762-0.863,1.686-1.695,2.807-2.373
				c1.117-0.677,2.445-1.155,3.796-1.346c1.35-0.186,2.694-0.099,3.89,0.171c0.612,0.131,1.161,0.297,1.736,0.506
				c0.671,0.251,1.182,0.509,1.686,0.784c1.953,1.101,3.397,2.31,4.808,3.542c1.39,1.236,2.668,2.509,3.901,3.804
				c2.459,2.593,4.728,5.274,6.912,8.009c4.333,5.495,8.278,11.22,11.955,17.163c1.842,2.972,3.55,6.036,5.147,9.218
				c0.793,1.597,1.554,3.225,2.248,4.939c0.682,1.733,1.32,3.483,1.714,5.682c0.373,2.082-1.011,4.07-3.092,4.443
				c-0.486,0.087-0.965,0.078-1.421-0.012l-0.056-0.012c-0.835-0.169-1.916-0.333-2.892-0.445c-1.001-0.117-2.005-0.198-3.001-0.241
				c-0.293-0.012-0.584-0.014-0.875-0.02c0.492,0.821,0.923,1.753,1.171,2.828c0.457,1.881,0.174,3.92-0.446,5.469
				c-0.319,0.797-0.868,1.433-1.54,1.863c-0.509,0.325-1.193,0.801-1.792,1.234c-0.619,0.447-1.235,0.91-1.845,1.383
				C108.589,269.313,107.386,270.303,106.207,271.322z M144.894,420.766c-2.098,0.577-4.193,0.864-6.259,0.864
				c-3.901,0-7.698-1.021-11.212-3.041c-13.658-7.85-19.382-28.189-19.99-30.483c-0.844-3.185,1.053-6.451,4.238-7.295
				c3.19-0.85,6.451,1.054,7.296,4.238c1.314,4.905,6.471,18.65,14.418,23.203c2.658,1.524,5.308,1.844,8.337,1.012
				c15.794-4.368,14.236-32.469,14.219-32.753c-0.205-3.285,2.291-6.119,5.575-6.328c3.291-0.209,6.118,2.276,6.333,5.562
				C167.95,377.295,170.036,413.814,144.894,420.766z M261.018,430.525c-1.683,7.365-7.796,13.268-15.589,15.046
				c-1.565,0.348-3.144,0.515-4.705,0.515c-4.807,0-9.446-1.591-13.052-4.357c-2.15,4.281-6.188,8.681-12.45,10.061
				c-1.749,0.396-3.424,0.591-5.016,0.591c-8.203,0-14.197-5.183-16.771-14.771c-0.559-2.082,0.676-4.223,2.758-4.782
				c2.078-0.559,4.223,0.676,4.782,2.759c1.972,7.348,5.959,10.075,12.546,8.584c5.444-1.198,7.638-6.325,8.131-8.563
				c-0.06-0.181-0.114-0.364-0.147-0.558c-0.872-5.141-1.616-9.252-2.199-12.352c-5.02-2.551-12.103-8.586-14.2-11.84
				c-1.721-2.669-1.417-4.698-0.858-5.931c0.831-1.825,2.804-3.807,11.56-5.976c5.023-1.244,10.513-2.048,13.987-2.048
				c2.827,0,4.559,0.492,5.79,1.645c1.593,1.493,1.976,3.748,1.139,6.701c-1.142,4.029-4.356,9.253-5.314,10.758
				c-1.844,2.896-3.239,4.673-4.326,5.794c0.455,2.434,1.001,5.457,1.625,9.062c0.241,0.273,0.459,0.573,0.621,0.921
				c2.175,4.684,8.626,7.455,14.385,6.172c4.878-1.112,8.694-4.726,9.701-9.2c0.012-0.055,0.025-0.109,0.041-0.163
				c0,0.001,0,0.001,0,0.001c-0.001,0,0.491-2.1-0.103-5.017c-0.431-2.113,0.933-4.175,3.045-4.604
				c2.108-0.427,4.174,0.932,4.604,3.045C261.91,426.476,261.195,429.813,261.018,430.525z M348.644,344.295
				c-0.179,1.457-4.631,35.761-27.747,43.828c-4.141,1.444-8.158,2.166-12.026,2.166c-4.881,0-9.528-1.148-13.901-3.441
				c-15.966-8.375-21.886-29.268-22.131-30.154c-0.876-3.177,0.988-6.462,4.165-7.338c3.174-0.874,6.455,0.985,7.335,4.155
				c0.083,0.291,4.883,16.877,16.21,22.789c4.855,2.533,10.226,2.716,16.417,0.557c15.925-5.558,19.799-33.728,19.833-34.01
				c0.401-3.271,3.387-5.588,6.646-5.198C346.717,338.049,349.044,341.024,348.644,344.295z M370.181,234.688
				c-1.229,1.721-3.618,2.119-5.338,0.891l-0.005-0.003l-0.017-0.011c-2.887-2.069-6.23-3.793-9.691-5.302
				c-3.471-1.508-7.088-2.803-10.767-3.958c-3.68-1.153-7.425-2.166-11.201-3.066c-3.759-0.892-7.628-1.703-11.351-2.327
				c-1.083-0.182-1.986-0.792-2.566-1.629l-0.019-0.027c-1.248-1.814-1.951-4.209-1.944-6.342c-0.022-2.004,0.407-3.751,0.791-5.192
				c-0.917,0.261-1.956,0.724-2.988,1.3c-1.128,0.63-2.26,1.388-3.37,2.209c-1.111,0.823-2.202,1.716-3.266,2.649
				c-1.046,0.921-2.137,1.945-3.038,2.873l-0.03,0.031c-1.472,1.516-3.893,1.551-5.409,0.079c-0.765-0.742-1.152-1.736-1.161-2.724
				c-0.011-2.319,0.27-4.23,0.587-6.168c0.333-1.917,0.735-3.776,1.173-5.616c0.888-3.675,1.887-7.279,3.037-10.832
				c2.292-7.104,4.881-14.083,7.955-20.93c1.561-3.415,3.229-6.797,5.156-10.128c0.97-1.666,2-3.318,3.186-4.954
				c1.214-1.633,2.473-3.264,4.467-4.842c0.254-0.196,0.528-0.39,0.82-0.579c0.161-0.1,0.274-0.177,0.489-0.297l0.292-0.16
				l0.152-0.077c0.375-0.184,0.583-0.276,0.894-0.407c0.289-0.119,0.583-0.232,0.887-0.333c1.207-0.413,2.548-0.66,3.912-0.664
				c1.365-0.002,2.734,0.251,3.974,0.694c1.24,0.453,2.338,1.088,3.309,1.791c1.934,1.433,3.335,3.15,4.476,4.916
				c0.553,0.896,1.058,1.798,1.478,2.735c0.438,0.951,0.774,1.843,1.097,2.948c0.442,1.509-0.424,3.091-1.934,3.533
				c-1.21,0.353-2.467-0.133-3.145-1.118l-0.15-0.22c-1.769-2.578-3.959-5.333-6.105-6.678c-1.076-0.693-2.038-0.982-2.951-0.973
				c-0.466,0.015-0.949,0.1-1.47,0.289c-0.129,0.044-0.261,0.099-0.395,0.156c-0.111,0.047-0.317,0.149-0.354,0.166l-0.151,0.08
				c-0.008,0.007-0.004,0.008-0.007,0.01l-0.095,0.063c-0.09,0.062-0.188,0.133-0.296,0.219c-0.882,0.701-1.934,1.964-2.86,3.287
				c-0.944,1.341-1.834,2.81-2.682,4.32c-1.695,3.031-3.227,6.243-4.659,9.506c-2.885,6.527-5.44,13.276-7.639,20.104
				c-1.083,3.418-2.146,6.842-3.018,10.272c-0.008,0.031-0.015,0.061-0.022,0.091c0.998-0.699,2.023-1.378,3.135-2
				c1.512-0.835,3.137-1.609,5.092-2.113c0.991-0.246,2.021-0.417,3.274-0.399l0.302,0.009l0.484,0.03
				c0.296,0.026,0.605,0.063,0.951,0.128c0.68,0.142,1.54,0.342,2.573,1.062c0.51,0.366,1.029,0.895,1.399,1.5
				c0.375,0.605,0.59,1.243,0.697,1.782c0.205,1.097,0.105,1.822,0.031,2.425c-0.183,1.173-0.428,1.933-0.616,2.658
				c-0.391,1.407-0.621,2.512-0.604,3.398c0.008,0.332,0.049,0.619,0.11,0.895c3.354,0.607,6.604,1.302,9.892,2.079
				c3.93,0.938,7.837,1.993,11.717,3.209c3.879,1.218,7.732,2.593,11.529,4.242c3.792,1.66,7.544,3.562,11.108,6.106
				C371.011,230.579,371.41,232.968,370.181,234.688z"/>
			<path fill="#BBBCC3" d="M691.086,335.791c-2.61-6.003-17.309-37.476-50.464-67.68c-35.872-32.677-79.13-51.307-128.573-55.372
				c-13.893-1.142-27.891-1.722-41.604-1.722c-32.734,0-60.519,3.29-82.095,7.24c2.373,8.865,3.886,15.489,4.439,17.987
				c5.087,6.269,36.517,46.184,53.574,95.547c32.103-7.431,56.357-5.67,58.017-5.538c2.389,0.193,4.168,2.285,3.976,4.671
				c-0.192,2.387-2.285,4.151-4.672,3.976c-0.385-0.033-23.656-1.694-54.58,5.319c1.065,3.504,2.051,7.048,2.941,10.623
				c1.461,5.852,2.322,11.642,2.703,17.328c29.496-1.654,45.867,2.689,46.963,2.994c2.308,0.639,3.662,3.028,3.022,5.337
				c-0.639,2.308-3.034,3.665-5.336,3.022c-0.251-0.068-15.961-4.176-44.427-2.58c-0.141,8.057-1.195,15.835-2.843,23.204
				c10.701,0.847,21.728,2.543,32.371,5.513c4.28-6.305,9.307-12.153,15.167-17.197c14.363-12.361,31.324-17.889,50.386-16.429
				c2.263,0.173,3.957,2.148,3.784,4.412c-0.174,2.264-2.142,3.974-4.412,3.784c-16.809-1.28-31.749,3.58-44.396,14.463
				c-4.666,4.016-8.755,8.602-12.324,13.547c2.148,0.756,4.276,1.567,6.37,2.446c2.209,0.927,3.248,3.469,2.321,5.677
				c-0.696,1.661-2.307,2.661-4.001,2.661c-0.56,0-1.128-0.108-1.676-0.34c-2.578-1.082-5.218-2.056-7.898-2.941
				c-8.794,15.059-13.442,32.253-14.985,46.711c13.96,2.979,32.36,9.247,57.992,20.819c0.3,0.14,25.26,11.681,52.058,13.671
				c17.354,1.292,39.974-3.579,48.605-17.345c1.207-1.923,3.743-2.503,5.666-1.299c1.923,1.206,2.505,3.743,1.299,5.667
				c-10.499,16.739-35.787,22.704-56.181,21.175c-28.347-2.105-53.812-13.898-54.881-14.399c-27.3-12.326-45.891-18.33-59.181-20.86
				c-0.037-0.002-0.072-0.002-0.109-0.004c-0.328-0.025-0.64-0.096-0.939-0.191c-16.796-3.031-24.903-0.396-31.621,1.791
				c-11.081,3.608-19.075,10.309-25.161,21.086c-8.376,14.775-6.088,29.728-3.979,37.326c0.679,2.435,1.645,4.855,2.879,7.246
				c0.099,0.19,0.211,0.379,0.313,0.569c0.293,0.546,0.595,1.093,0.916,1.637c0.17,0.286,0.352,0.572,0.528,0.858
				c0.279,0.45,0.564,0.897,0.862,1.345c0.198,0.297,0.399,0.594,0.606,0.89c0.313,0.449,0.639,0.896,0.972,1.342
				c0.205,0.273,0.405,0.549,0.618,0.821c0.428,0.553,0.875,1.103,1.333,1.649c0.132,0.157,0.254,0.316,0.389,0.473
				c0.592,0.692,1.209,1.379,1.846,2.061c0.212,0.227,0.435,0.449,0.65,0.675c0.453,0.471,0.913,0.94,1.388,1.407
				c0.261,0.256,0.528,0.512,0.796,0.767c0.464,0.441,0.938,0.881,1.422,1.317c0.271,0.245,0.542,0.49,0.82,0.734
				c0.552,0.484,1.12,0.965,1.697,1.443c0.219,0.182,0.43,0.363,0.651,0.545c0.803,0.651,1.626,1.297,2.473,1.935
				c0.181,0.137,0.371,0.27,0.555,0.405c0.679,0.504,1.369,1.005,2.075,1.499c0.304,0.212,0.614,0.421,0.922,0.632
				c0.614,0.42,1.236,0.836,1.871,1.249c0.333,0.216,0.668,0.433,1.008,0.647c0.662,0.42,1.338,0.836,2.021,1.248
				c0.307,0.186,0.608,0.372,0.919,0.556c0.994,0.586,2.004,1.167,3.038,1.736c0.42,0.23,0.85,0.461,1.287,0.692
				c21.034,11.102,63.389,22.913,106.462,22.902c8.077-0.002,16.179-0.42,24.17-1.335c5.327-0.611,10.605-1.442,15.794-2.521
				c2.132-0.443,4.24-0.915,6.323-1.415c0.713-0.171,1.407-0.364,2.114-0.542c1.359-0.342,2.724-0.678,4.061-1.044
				c0.888-0.243,1.753-0.513,2.631-0.766c1.134-0.328,2.275-0.646,3.392-0.991c0.985-0.305,1.946-0.637,2.92-0.955
				c0.983-0.323,1.979-0.633,2.952-0.969c1.049-0.365,2.074-0.756,3.11-1.137c0.868-0.319,1.748-0.625,2.605-0.956
				c1.105-0.426,2.186-0.879,3.272-1.324c0.763-0.313,1.537-0.61,2.29-0.932c1.14-0.485,2.253-1,3.374-1.507
				c0.677-0.306,1.365-0.6,2.034-0.913c1.17-0.55,2.313-1.126,3.461-1.698c0.595-0.297,1.2-0.58,1.789-0.883
				c1.196-0.615,2.366-1.259,3.537-1.9c0.517-0.282,1.044-0.553,1.555-0.841c1.214-0.682,2.401-1.393,3.587-2.103
				c0.446-0.269,0.904-0.524,1.348-0.797c1.227-0.752,2.426-1.531,3.621-2.314c0.382-0.249,0.773-0.488,1.152-0.74
				c1.23-0.822,2.433-1.67,3.63-2.523c0.326-0.231,0.66-0.455,0.983-0.689c1.231-0.894,2.436-1.813,3.631-2.74
				c0.271-0.211,0.55-0.412,0.818-0.624c1.227-0.966,2.425-1.957,3.613-2.959c0.223-0.188,0.453-0.369,0.674-0.558
				c1.215-1.037,2.401-2.101,3.575-3.177c0.181-0.165,0.368-0.325,0.549-0.492c1.198-1.109,2.37-2.245,3.525-3.396
				c0.143-0.141,0.29-0.277,0.432-0.42c1.177-1.183,2.327-2.391,3.459-3.614c0.108-0.118,0.223-0.232,0.332-0.352
				c1.151-1.254,2.274-2.532,3.378-3.83c0.08-0.095,0.164-0.187,0.245-0.282c1.121-1.325,2.215-2.676,3.284-4.044
				c0.057-0.071,0.115-0.142,0.17-0.213c1.085-1.394,2.141-2.811,3.173-4.249c0.036-0.052,0.076-0.102,0.113-0.154
				c1.044-1.461,2.061-2.944,3.05-4.45c0.02-0.032,0.043-0.063,0.063-0.095c0.998-1.523,1.97-3.07,2.911-4.64
				c0.01-0.017,0.021-0.032,0.03-0.05c0.951-1.585,1.874-3.194,2.767-4.825c0-0.002,0-0.002,0.001-0.003
				c7.152-13.077,12.425-27.637,15.697-43.554c0.003-0.017,0.007-0.033,0.011-0.05c0.402-1.958,0.772-3.938,1.113-5.936
				c0.006-0.036,0.014-0.071,0.02-0.107l0.417-3.147l0.035-0.03c0.026-0.261,0.048-0.522,0.072-0.783l0.051-0.381l-0.011-0.046
				C714.646,416.04,708.08,374.879,691.086,335.791z"/>
			<path fill="#BBBCC3" d="M449.898,408.748c-1.896,6.417-4.181,12.441-6.622,17.964c0.82-0.325,1.532-0.596,2.113-0.799
				c2.143-0.75,4.487,0.377,5.238,2.52c0.75,2.143-0.378,4.487-2.52,5.238c-0.101,0.035-0.222,0.081-0.329,0.119
				c-16.275,5.893-123.581,57.903-124.669,58.433c-0.097,0.046-0.194,0.089-0.293,0.128c-0.327,0.129-32.997,13.207-41.736,35.795
				c-0.776,2.005-1.327,4.036-1.674,6.089c0.326-0.272,0.652-0.544,0.987-0.802c1.71-1.326,3.526-2.479,5.42-3.46
				c0.948-0.49,1.914-0.94,2.904-1.343c0.495-0.201,0.996-0.392,1.507-0.57c0.53-0.183,0.993-0.335,1.642-0.511
				c1.452-0.395,2.948,0.462,3.341,1.913c0.361,1.331-0.328,2.698-1.562,3.222l-0.19,0.08c-0.279,0.118-0.727,0.316-1.1,0.501
				c-0.39,0.19-0.78,0.395-1.166,0.608c-0.771,0.428-1.527,0.896-2.259,1.394c-1.463,0.996-2.831,2.116-4.069,3.338
				c-2.163,2.132-3.917,4.578-5.178,7.221c0.646,3.075,1.729,6.184,3.272,9.317c2.405,4.884,5.807,8.551,10.307,11.086
				c0.104-0.626,0.228-1.248,0.37-1.864c0.562-2.459,1.432-4.823,2.538-7.032c1.109-2.21,2.451-4.268,3.977-6.151
				c0.762-0.943,1.571-1.843,2.427-2.701c0.428-0.429,0.867-0.847,1.325-1.255c0.473-0.419,0.894-0.78,1.491-1.234
				c1.197-0.91,2.905-0.678,3.816,0.52c0.845,1.11,0.706,2.662-0.275,3.607l-0.131,0.126c-0.257,0.249-0.645,0.644-0.961,0.997
				c-0.333,0.365-0.657,0.746-0.972,1.136c-0.63,0.78-1.221,1.596-1.765,2.437c-1.09,1.682-1.995,3.462-2.684,5.293
				c-1.114,2.955-1.618,6.038-1.528,9.087c20.308,5.107,55.238-4.801,101.106-28.272c-1.503-2.898-2.684-5.846-3.513-8.826
				c-4.231-15.243-2.546-30.718,4.744-43.577c7.056-12.496,16.796-20.63,29.77-24.856c8.233-2.678,17.289-4.66,31.725-2.649
				c1.651-14.741,6.336-32.086,15.015-47.635C469.943,410.862,459.781,409.439,449.898,408.748z"/>
		</g>
	</g>
	<g id="dark_grey_2_">
		<g>
			<g>
				<g>
					<g>
						<path fill="#7B7B7B" d="M505.61,443.187l-0.424-0.204c-4.234-2.367-9.001-5.575-13.247-8.778
							c-3.283-2.521-6.427-5.195-9.453-7.987c-2.531,5.725-4.548,11.584-6.1,17.349c1.702,1.606,2.998,2.943,5.91,4.756
							c5.263,3.231,10.368,6.042,16.496,8.722c3.603,1.536,7.884,0.141,9.823-3.353C510.675,449.958,509.34,445.261,505.61,443.187z
							"/>
					</g>
					<g>
						<path fill="#7B7B7B" d="M529.926,404.557l-0.272-0.181c-4.571-2.758-9.409-6.158-13.896-9.587
							c-1.794-1.391-3.559-2.826-5.289-4.291c-1.856,1.285-3.671,2.675-5.438,4.195c-2.758,2.375-5.314,4.95-7.685,7.678
							c2.962,2.166,5.158,3.468,9.158,5.905c5.393,3.315,10.649,6.215,16.601,9.026c3.303,1.531,7.351,0.37,9.254-2.812
							C534.445,411.091,533.34,406.623,529.926,404.557z"/>
					</g>
				</g>
			</g>
			<g>
				<g>
					<path fill="#7B7B7B" d="M322.817,492.352c-0.05,0.02-0.88,0.352-2.272,0.979c2.227,2.043,4.36,4.197,6.445,6.521
						c3.252,3.584,6.382,7.499,9.342,11.638c2.937,4.142,5.802,8.572,8.008,12.555c1.24,2.222,3.059,3.666,5.223,4.288
						c2.183,0.597,4.444,0.361,6.437-0.766c1.873-1.022,3.232-2.7,3.926-4.793c0.606-1.922,0.542-4.014-0.235-5.889
						c-2.186-5.04-4.508-9.817-7.638-15.372c-2.841-5.063-5.957-9.906-9.208-14.44c-0.771-1.041-1.584-2.105-2.448-3.2
						c-10.259,4.943-17.019,8.219-17.288,8.35C323.014,492.269,322.916,492.312,322.817,492.352z"/>
				</g>
				<g>
					<path fill="#7B7B7B" d="M397.285,504.604c1.119-5.646,3.099-11.067,5.943-16.086c0.003-0.005,0.006-0.008,0.007-0.014
						c-1.572-3.579-3.383-7.137-5.75-11.327c-2.704-4.804-5.784-9.504-9.118-13.978c-0.417-0.55-0.855-1.104-1.295-1.662
						c-6.766,3.211-13.538,6.441-20.015,9.537c1.798,1.7,3.552,3.46,5.226,5.303c3.258,3.573,6.245,7.313,8.922,11.1
						c2.828,4.049,5.414,8.264,7.27,11.91c1.256,2.483,3.092,4.07,5.369,4.81C394.962,504.566,396.131,504.699,397.285,504.604z"/>
				</g>
			</g>
			<g>
				<g>
					<path fill="#7B7B7B" d="M497.867,584.344c3.303-35.264,11.374-66.021,25.502-95.398c-9.571-4.236-18.025-7.663-25.521-10.415
						c-17.2,22.924-30.048,65.211-34.184,97.013C473.706,578.901,485.328,581.971,497.867,584.344z"/>
				</g>
				<g>
					<path fill="#7B7B7B" d="M538.142,588.98c12.367,0.483,24.92,0.061,37.166-1.571c-6.376-19.923-7.146-53.596-0.748-83.076
						c-9.334-1.253-18.107-3.389-25.505-5.604C540.178,520.328,534.842,560.442,538.142,588.98z"/>
				</g>
				<g>
					<path fill="#7B7B7B" d="M623.111,497.582c-7.424,3.919-16.155,6.264-24.893,7.246c-0.084,22.213,8.401,56.015,18.03,72.281
						c11.182-4.189,21.48-9.348,30.857-15.42C637.07,546.096,627.117,521.895,623.111,497.582z"/>
				</g>
			</g>
			<g>
				<g>
					<path fill="#7B7B7B" d="M704.422,374.848c-1.351,0.584-2.697,1.176-4.042,1.776c-12.062,5.465-22.455,11.127-31.78,17.304
						c-4.04,2.653-5.501,7.9-3.443,12.178c1.516,3.16,4.673,5.331,8.216,5.627c1.742,0.154,3.494-0.141,5.171-0.9
						c9.129-4.064,19.223-7.57,30.825-10.692c0.003-0.001,0.008-0.001,0.011-0.003C708.179,391.641,706.525,383.207,704.422,374.848
						z"/>
					<path fill="#7B7B7B" d="M678.223,312.436c-2.216,1.523-4.317,2.995-6.33,4.443c-10.605,7.68-21.823,16.271-31.92,27.09
						c-3.241,3.522-3.363,8.904-0.276,12.507c1.857,2.188,4.603,3.428,7.52,3.428c2.257,0,4.469-0.759,6.396-2.299
						c10.288-8.176,22.442-14.841,31.882-19.712c1.763-0.903,3.547-1.792,5.34-2.676
						C689.343,331.861,685.33,323.439,678.223,312.436z"/>
					<path fill="#7B7B7B" d="M640.621,268.111c-2.827-2.576-5.707-5.054-8.625-7.456c-2.563,2.94-5.059,5.878-7.53,8.892
						c-9.649,11.847-16.381,21.505-21.815,31.307c-2.269,4.084-1.168,9.086,2.589,11.892c1.699,1.272,3.726,1.959,5.859,1.959
						c3.005,0,5.793-1.344,7.707-3.77c6.165-7.681,13.872-15.485,24.199-24.544c2.684-2.342,5.58-4.789,8.76-7.396
						C648.307,275.379,644.6,271.736,640.621,268.111z"/>
					<path fill="#7B7B7B" d="M572.239,226.006c-0.904,1.792-1.795,3.58-2.646,5.289l-2.663,5.288
						c-5.008,10.033-9.31,19.354-13.116,28.46c-2.042,4.799-0.099,10.433,4.524,13.125c1.679,0.982,3.612,1.477,5.558,1.488
						c3.675,0,7.147-1.85,9.168-4.836l0.241-0.362c4.787-7.7,10.236-15.816,16.666-24.808l2.113-2.933
						c1.973-2.722,4.168-5.754,6.36-8.738C590,233.386,581.262,229.392,572.239,226.006z"/>
					<path fill="#7B7B7B" d="M512.049,212.739c-5.02-0.412-9.953-0.743-14.801-0.999c-0.157,0.479-0.318,0.952-0.471,1.438
						c-1.501,4.889-2.794,9.914-3.854,14.937c-2.208,10.215-3.397,20.458-3.551,30.479c-0.034,4.466,3.188,8.393,7.675,9.343
						c0.698,0.155,1.402,0.23,2.09,0.23c4.584,0,8.51-3.056,9.532-7.546c1.914-8.308,4.797-16.771,8.586-25.176
						c1.809-4.061,3.817-8.049,5.95-11.855c2.006-3.578,3.822-6.546,5.429-8.895C523.186,213.859,517.659,213.2,512.049,212.739z"/>
					<path fill="#7B7B7B" d="M423.534,213.361l0.004,1.178c0.034,5.254,0.646,16.235,0.924,20.438
						c0.624,9.473,1.713,19.078,3.364,29.377c0.762,4.45,4.645,7.837,9.26,8.033l0.458,0.015c5.271,0,9.586-4.012,9.858-9.201
						c0.478-9.473,1.357-18.684,2.632-27.363c0.249-1.679,0.483-3.74,0.72-5.889c0.45-3.698,0.882-7.526,1.458-10.244
						c0.221-1.068,0.427-2.684,0.617-4.381c0.161-1.341,0.341-2.793,0.537-3.973C442.799,211.729,432.841,212.434,423.534,213.361z
						 M437.544,270.503l-0.011-0.033h0.011V270.503z"/>
					<path fill="#7B7B7B" d="M711.695,440.514c-10.781,2.01-20.508,4.515-29.598,7.605c-4.598,1.538-7.366,6.233-6.455,10.914
						c0.816,4.27,4.309,7.499,8.721,8.051c0.968,0.119,1.964,0.093,3.009-0.096c7.471-1.2,14.829-1.742,22.284-2.147
						c0.238-1.302,0.486-2.597,0.698-3.916C711.08,454.095,711.525,447.29,711.695,440.514z"/>
				</g>
			</g>
			<g>
				<path fill="#7B7B7B" d="M245.896,254.684c8.31-0.175,10.544-16.238,9.282-50.518c-7.159,0.142-13.971,0.585-20.413,1.256
					C236.776,236.529,238.86,254.831,245.896,254.684z"/>
				<path fill="#7B7B7B" d="M196.45,216.305c3.223,38.175,6.432,53.36,14.089,52.838c8.814-0.609,9.202-15.08,6.435-52.784
					c-0.237-3.105-0.417-5.833-0.577-8.289c-7.453,1.378-14.222,3.012-20.254,4.726C196.242,213.908,196.344,215.067,196.45,216.305
					z"/>
				<path fill="#7B7B7B" d="M178.289,265.672c6.569-1.538,4.952-22.227,3.208-48.114c-8.99,3.32-15.027,6.334-17.71,7.771
					C167.516,250.214,171.352,267.32,178.289,265.672z"/>
			</g>
		</g>
	</g>
	<g id="pink_4_">
		<path fill="#F8B6C4" d="M212.747,408.001c2.25,2.399,6.85,5.981,9.514,7.504c1.934-2.399,5.01-7.531,6.389-10.766
			C223.647,404.979,216.349,406.663,212.747,408.001z"/>
		<path fill="#F8B6C4" d="M346.654,219.001c3.879,1.218,7.732,2.593,11.529,4.242c3.181,1.394,6.335,2.962,9.374,4.933
			c-3.832-20.001-11.718-49.732-21.386-65.46c-0.237,0.95-0.946,1.756-1.953,2.05c-1.21,0.353-2.467-0.133-3.145-1.118l-0.15-0.22
			c-1.769-2.578-3.959-5.333-6.105-6.678c-1.076-0.693-2.038-0.982-2.951-0.973c-0.466,0.015-0.949,0.1-1.47,0.289
			c-0.129,0.044-0.261,0.099-0.395,0.156c-0.111,0.047-0.317,0.149-0.354,0.166l-0.151,0.08c-0.008,0.007-0.004,0.008-0.007,0.01
			l-0.095,0.063c-0.09,0.062-0.188,0.133-0.296,0.219c-0.882,0.701-1.934,1.964-2.86,3.287c-0.944,1.341-1.834,2.81-2.682,4.32
			c-1.695,3.031-3.227,6.243-4.659,9.506c-2.885,6.527-5.44,13.276-7.639,20.104c-1.083,3.418-2.146,6.842-3.018,10.272
			c-0.008,0.031-0.015,0.061-0.022,0.091c0.998-0.699,2.023-1.378,3.135-2c1.512-0.835,3.137-1.609,5.092-2.113
			c0.991-0.246,2.021-0.417,3.274-0.399l0.302,0.009l0.484,0.03c0.296,0.026,0.605,0.063,0.951,0.128
			c0.68,0.142,1.54,0.342,2.573,1.062c0.51,0.366,1.029,0.895,1.399,1.5c0.375,0.605,0.59,1.243,0.697,1.782
			c0.205,1.097,0.105,1.822,0.031,2.425c-0.183,1.173-0.428,1.933-0.616,2.658c-0.391,1.407-0.621,2.512-0.604,3.398
			c0.008,0.332,0.049,0.619,0.11,0.895c3.354,0.607,6.604,1.302,9.892,2.079C338.867,216.73,342.774,217.785,346.654,219.001z"/>
		<path fill="#F8B6C4" d="M93.89,272.473c2.328-2.419,4.763-4.738,7.313-6.942c1.276-1.102,2.579-2.174,3.922-3.214
			c0.671-0.52,1.352-1.032,2.048-1.536c0.276-0.198,0.543-0.387,0.813-0.577c-0.003-0.024-0.005-0.047-0.01-0.072
			c-0.058-0.267-0.265-0.705-0.739-1.263c-0.232-0.277-0.521-0.575-0.861-0.903l-1.246-1.186c-0.266-0.278-0.559-0.545-1.009-1.195
			c-0.217-0.353-0.538-0.795-0.75-1.785c-0.099-0.484-0.121-1.166,0.046-1.838c0.084-0.33,0.213-0.677,0.358-0.943
			c0.151-0.292,0.325-0.545,0.482-0.733c0.686-0.804,1.211-1.044,1.608-1.262c0.367-0.176,0.688-0.292,0.934-0.367
			c0.512-0.157,0.896-0.232,1.311-0.307c2.519-0.419,4.964-0.485,7.356-0.387c0.226,0.009,0.449,0.029,0.674,0.041
			c-0.481-1.054-0.991-2.111-1.539-3.165c-1.504-2.897-3.211-5.749-4.946-8.587c-3.497-5.667-7.354-11.167-11.431-16.422
			c-2.031-2.631-4.137-5.196-6.337-7.591c-1.101-1.192-2.226-2.345-3.371-3.396c-1.13-1.037-2.335-2.015-3.354-2.601
			c-0.242-0.141-0.495-0.264-0.623-0.314c-0.225-0.087-0.494-0.175-0.715-0.224c-0.465-0.117-0.85-0.127-1.193-0.096
			c-0.341,0.042-0.65,0.146-1.004,0.333c-0.353,0.182-0.742,0.471-1.128,0.868c-1.61,1.555-3.062,4.532-4.178,7.212l-0.102,0.243
			c-0.396,0.953-1.252,1.566-2.203,1.712c-2.103,18.904,5.768,51.425,9.407,69.085C86.614,280.629,90.102,276.41,93.89,272.473z"/>
	</g>
</g>
</svg>
