<?xml version="1.0" encoding="UTF-8" standalone="no"?>
<svg viewBox="0 0 322.79373 318.60583" xmlns="http://www.w3.org/2000/svg">
<g transform="translate(-199.87912,-176.45763)">
<path d="m268.21429,178.07647c-7.0525,3.20435-11.4449,10.57275-16.07143,16.78571-6.62315,8.89423-11.83632,18.83478-16.42857,28.92857-2.97802,6.54571-5.60534,13.33213-7.14286,20.35715-2.45418,11.21326-3.3543,22.80788-3.21429,34.28571 .11113,9.11016.94686,18.31868 3.21429,27.14286 2.36575,9.20684 6.25746,18.03217 10.71428,26.42857 11.02203,20.76486 24.56799,40.23968 39.28572,58.57143 6.80022,8.47005 14.10671,16.67669 22.5,23.57143 9.59521,7.88207 20.3495,14.39204 31.42857,20 11.73624,5.9406 24.07508,10.899 36.78571,14.28571 19.19729,5.11505 39.23353,6.32 58.92858,8.92857 16.74718,2.21813 33.49044,4.76413 50.35714,5.71429 8.98906.50638 18.27308,2.16221 27.00992-.012 4.62259-1.15036 9.54869-3.05685 12.62691-6.69226 2.06421-2.43785 2.36233-5.96764 3.03045-9.09137 .53083-2.48185 1.24871-5.08614.75762-7.57615-1.14403-5.80063-5.04244-10.74581-8.33376-15.65736-3.894-5.81092-8.32066-11.33675-13.38452-16.16244-7.92215-7.54956-16.84642-14.12428-26.26397-19.69798-13.51963-8.00148-28.39905-13.4778-42.93148-19.44543-11.45636-4.70447-23.16031-8.78982-34.85026-12.87945-9.37226-3.27881-18.83816-6.28435-28.28427-9.34391-10.58677-3.42902-21.54828-5.81974-31.81981-10.10152-7.36787-3.07137-14.57631-6.67653-21.2132-11.11168-9.39146-6.27591-18.16968-13.5885-26.01143-21.71828-7.24761-7.51382-13.19573-16.20361-19.1929-24.74874-4.52115-6.442-9.64395-12.66751-12.62691-19.95051-3.16654-7.73122-4.31437-16.20037-5.3033-24.4962-.82728-6.93978-1.89609-14.11158-.50507-20.96067 1.54468-7.60568 5.36038-14.71027 9.59645-21.2132 3.51424-5.39483 15.64136-8.57867 12.87944-14.39467-.79257-1.66899-3.85492-.51047-5.53705.25382z" fill="#fff" stroke="#000"/>
<path d="m327.67857,431.91575c0,0-8.61692,4.03324-11.69643,5.44643-3.68958,1.69316-7.14515,3.88615-10.89285,5.44643-4.81352,2.00401-9.67981,4.13408-14.82143,5-3.52196.59314-7.31004,1.1696-10.71429.0893-2.47987-.78696-5.04817-2.2948-6.33928-4.55358-1.63132-2.85397-1.64511-6.62134-.89286-9.82142 .58404-2.48452 2.56913-4.41664 4.01786-6.51786 1.19278-1.72999 2.46151-3.41339 3.83928-5 1.36611-1.57318 2.88133-3.01166 4.375-4.46429 1.19271-1.15994 2.08281-2.86536 3.66072-3.39285 3.31982-1.1098 12.76786.35713 12.76786.35713" fill="#fff" stroke="#000"/>
<path d="m394.3383,453.72053c0,0-3.94867,1.8857-5.80838,3.03046-1.72085,1.05928-4.00201,1.73763-4.92449,3.53553-1.13364,2.20944-.35844,4.99259 0,7.44988 .65929,4.51982 2.1102,8.93573 3.91434,13.13198 1.2661,2.94482 2.51019,6.0888 4.79823,8.33376 2.36657,2.32202 5.48527,4.03861 8.71256,4.79822 2.99334.70455 6.40833.8719 9.21764-.3788 2.41999-1.07737 3.85369-3.65239 5.55584-5.68211 2.46173-2.93549 5.06799-5.87419 6.69226-9.34391 1.41964-3.03261 1.80449-6.45279 2.52538-9.72272 .60786-2.75725 1.64127-5.51311 1.51523-8.33376-.0565-1.26493-1.01015-3.6618-1.01015-3.6618" fill="#fff" stroke="#000"/>
<path d="m239.78496,333.76491c0,0-5.95871-5.50488-9.72272-6.56599-1.82478-.51442-3.80103.48921-5.68211.25254-2.44397-.30749-4.81297-1.16242-7.07106-2.14657-3.52726-1.53729-7.0111-3.3551-9.97526-5.80838-2.62019-2.16859-5.69573-4.45047-6.69226-7.70241-.81987-2.67545.63604-5.56063 1.01015-8.33376 .42098-3.12059.46399-6.33397 1.38896-9.34391 .741-2.41129 1.68116-4.86981 3.283-6.81853 1.20271-1.46316 2.80551-2.6615 4.54568-3.40927 2.07888-.89332 4.43059-1.06862 6.69226-1.13642 1.94666-.0584 4.13216-.36019 5.80838.63135 .8844.52315 1.76777,2.52538 1.76777,2.52538" fill="#fff" stroke="#000"/>
<path d="m434.28572,369.50503c0,0-4.62132-9.05935-6.60715-12.67856-2.0316-3.70262-3.31524-7.95052-6.16071-11.07143-3.23141-3.54422-7.42558-6.33442-11.875-8.125-2.18329-.87862-4.6267-.8879-6.96429-1.16072-5.38253-.6282-11.10173,1.99818-13.75,3.83929-1.57745,1.09666.54039,13.21429.80357,13.21429" fill="#fff" stroke="#000"/>
<path d="m248.75006,220.9435c-.15691.94688-.32083,1.92327-.75761,2.77792-.3814.74629-1.15662,1.23291-1.57836,1.95717-.43264.74297-.17413,2.02252-.94702,2.39911-1.06551.51916-2.24389-.79397-3.40927-1.01015-.78874-.14631-1.66468-.51209-2.39911-.1894-1.12544.49449-1.67554,1.82978-2.27284,2.90419-.44643.80302-.60157,1.73716-.94702,2.58851-.40733,1.00386-.99874,1.93453-1.32582,2.96733-.29782.94038-.0826,2.04557-.56822,2.90418-.43277.76521-1.28417,1.20217-1.95717,1.76777-.65423.54982-1.8309,1.26269-2.0203,1.57836s-.69448,2.46225-.50508,2.71479 1.4424,1.54608 2.39911,1.57836c1.66705.0563 2.93535-1.58866 4.35629-2.46224 .64639-.3974 1.14164-1.36098 1.89403-1.26269 .4731.0618.77828.627.94702,1.07328 .52101,1.37793.27479,2.97214 0,4.41942-.4177,2.19997-1.53595,4.21161-2.46224,6.25032-.83322,1.83385-1.62838,3.7124-2.77792,5.36643-1.05431,1.51701-3.04074,2.38772-3.72494,4.10375-.71723,1.79887-.44339,3.89794-.12627,5.80838 .30091,1.81274 1.20764,3.4725 1.89403,5.17703 .72154,1.79184 2.16634,3.3791 2.33598,5.3033 .22637,2.56767-1.34902,4.98082-1.8309,7.51301-.46069,2.42087-1.23134,4.86923-1.01015,7.3236 .12126,1.34552.67048,2.63695 1.26269,3.85121 .94412,1.93583 2.22659,3.70626 3.59867,5.36644 1.8107,2.19089 4.61036,3.55349 6.06091,5.99778 1.31889,2.22244 1.89419,4.8779 2.14658,7.44987 .19389,1.97588.008,4.01684-.50508,5.93465-.5771,2.15532-2.49887,3.85606-2.84105,6.06091-.39712,2.55883.18865,5.24672 1.01015,7.70242 1.91045,5.71091 5.43097,10.79947 8.90197,15.7205 1.6683,2.36524 3.39027,4.7982 5.68211,6.56599 1.05824.81626 2.42946,1.12039 3.59867,1.76776 3.53042,1.95474 6.59071,4.7662 10.29092,6.37659 1.76012.76603 3.65324,1.26044 5.55584,1.51523 2.56561.34358 5.1954.30778 7.76555,0 2.30089-.27554 4.53832-.9673 6.7554-1.6415 1.05105-.31962 2.1617-.55466 3.09359-1.13642 .59342-.37046.86611-1.19127 1.51523-1.45209 .87873-.35308 2.0203-.12627 2.84105,0s2.31431.21177 3.34613.69448c.70555.33008 1.57837,1.32582 1.8309,1.45209s2.20971.88388 2.58852.88388 3.36268.40701 5.05076.37881c.97363-.0163 2.65165-.1894 2.90419-.31567s1.78711-.70627 2.71479-.94702c.95109-.24682 2.27284-.31568 2.90418-.50508s2.77792-1.13641 3.53554-1.51522 2.71478-1.6415 2.84105-1.89404 1.4521-1.8309 1.6415-2.20971 .8839-2.14657.94702-2.90419 .33122-4.05059.12627-6.06091c-.17294-1.69636-.69167-3.3415-1.13642-4.98763-.38541-1.42649-.5457-2.97509-1.32583-4.23001-1.6896-2.7179-4.68271-4.36536-6.9448-6.62913-1.31519-1.31617-2.42488-2.84578-3.85121-4.04061-1.60629-1.34558-3.5616-2.21812-5.24016-3.4724-1.2325-.92096-2.53538-1.79817-3.53554-2.96732-1.0065-1.17656-1.40872-2.78732-2.39911-3.97748-.95357-1.14591-2.27953-1.9258-3.34613-2.96732-.88427-.86347-1.85897-1.67392-2.52538-2.71479-.68696-1.07297-.74001-2.47907-1.45209-3.53553-3.01101-4.46723-7.96696-7.28136-11.55362-11.30108-2.7858-3.12217-5.19629-6.56132-7.70242-9.91212-10.98938-11.63105-11.95082-16.04628-17.12548-24.51653-1.72771-2.83021-3.62292-5.62515-4.73214-8.75-2.84693-8.02026-3.50077-16.66829-4.73214-25.08929-.4979-3.40499-.30194-6.91379-1.07143-10.26786-.33262-1.44983-.0454-4.40758-1.51786-4.19642-.94783.13593-.022,1.92238-.17851,2.86703z" fill="#f00"/>
<path d="m333.98169,411.7992c5.04426-2.88589 9.85682-6.35178 15.41641-8.19419 3.22117-.90088 6.86072-1.35861 9.99135.0767 2.82124,1.78427 3.08487,6.29764.45916,8.3844-2.37168,2.3201-6.37164,3.33164-7.20464,6.93804-.71158,2.58339-2.47676,5.28156-5.33072,6.27133-4.80771,2.07448-9.17558.9262-14.1379,2.26514-2.7091.35274-5.59149.47516-8.14449-.66058-1.37683-3.90376-5.12211-7.31892-9.47183-6.91949-2.35773-.0396-5.27459,1.11749-7.11709-.91393-1.56172-2.28323.68906-5.2322 3.05649-5.72138 4.82207-1.06221 10.06048-.69642 14.44385,1.70533 1.94423,1.39278 4.51176.52466 6.05344-1.05568 .75337-.64014 1.2815-1.50332 1.98597-2.17566z" fill="#f00"/>
<path d="m350.39666,440.58855c13.56592,4.78929 27.24694,10.28393 41.76473,11.0839 2.20764-.14336 8.02795.95606 7.49367-2.12623-1.48036-.71988-3.61993-2.39398-.73971-2.68226 3.07346-2.92172 4.90145-7.59349 3.27036-11.71421-1.21877-4.6255 2.47069-8.12955 4.92772-11.48125 2.49355-3.06467.50499-6.60313.75192-9.98774 .25146-3.61108 1.203-8.1816-1.9998-10.81245-4.40166-3.51147-8.3523-7.5533-12.93998-10.82287-2.69775-2.02999-4.57369-4.93778-5.45574-8.17653-2.10352-4.51368-7.57192-6.41566-12.2503-5.40731-5.05208.44466-10.33573,2.48914-13.0125,7.0655-2.94085,3.39623-3.27474,8.16493-1.55163,12.19243 1.66353,4.32565 4.89645,8.09104 9.25738,9.83573 4.62905,1.06269 6.06934,6.00704 3.15375,9.61726-.69214,4.37224-7.36961,4.88678-6.78156,9.63013 1.35521,3.90268-.63032,9.7057-5.3518,9.7741-3.82095-1.55459-8.07045.49449-10.27844,3.72564l-.25807.28616z" fill="#f00"/>
<path d="m498.00521,407.88486c1.0338,6.25041 3.00965,13.11377-.10749,19.10097-1.27995,10.03663-8.26477,7.36136-9.7664,1.05758-1.31303-3.36263-2.22214-6.88964-3.99613-10.17621-4.78731-10.62186-9.04827-21.84061-16.79555-30.73042-10.06546-9.71501-36.5109-15.65799-36.5109-15.65799s1.1711,3.13093.51126,7.34361c-.76889,5.76018 3.36259,10.25659 6.40766,14.39218 1.50319,5.56355.51724,13.19641-5.3848,15.76151-5.92766,3.46315-9.46872,11.21604-7.01631,17.83823 3.44927,2.10676 13.20216,5.99473 6.47586,10.33064-4.48197,2.28368-10.24667,4.61679-11.05893,10.29118-1.67217,7.09001 6.54015,9.65403 11.93675,7.63532 4.9345-1.3078 12.63505.49525 13.63957-6.54704 .36501-4.76388 4.89369-10.27737 9.06354-5.04057 4.68169,4.75445 8.35798,11.98448 15.62288,13.01163 4.61721.58647 7.41412-5.18326 10.81963-7.63364 5.63715-3.29194 8.46485,7.21321 13.11205,8.66038 6.13129,2.51438 12.36011-2.38479 15.92818-7.03043 6.52274-7.59524 4.34068-18.7922-.0325-26.88357-3.35322-4.83034-5.27567-10.62702-9.26311-14.99248-.83786-1.00978-2.41963-1.25264-3.58523-.73088z" fill="#f00"/>
<path d="m395.17857,356.73718c-.18895,1.50507.58594,3.72446 2.44514,3.44612 1.67705.16012 2.91906,2.16759 2.21009,3.72309-.30725,2.0419 1.15448,3.70393 2.03684,5.39464 1.01844,1.24011 2.18074,2.84515 3.98239,2.73277 1.62662-.86533.58022-3.3243-.91275-3.70047-1.19293-.56412-2.0123-3.00302-.14104-3.07527 2.55274.0508 4.32886,2.2955 5.36197,4.40207 1.17554,2.06044 2.0984,4.321 3.69268,6.10305 1.13738.93791 2.26711,2.42546 3.8911,2.30943 1.79714-.29432 2.83132-1.96643 4.19469-2.98702 2.3382-2.09657 2.32403-5.86299.56468-8.31204-.81949-1.38786-2.16979-2.36507-3.70987-2.81154-6.73756-2.31792-13.41419-4.8159-20.12279-7.21877-1.49134-.53895-3.51872-.0948-5.01102-.63111 .32739.53573 1.19051.0893 1.51789.62505z" fill="#f00"/>
<path d="m494.14736,459.93753c.31729.77962 1.01297,1.62416 1.93977,1.53905 .56579-.023.74003-.7465.48068-1.16922-.28332-.53825-.69024-1.0102-1.11654-1.43851-1.0398-.8712-1.76154-1.24938-3.02444-1.52177-1.61756-.27459-3.39847-.23923-4.82123.67533-.88814.52662-1.75772,1.09444-2.57921,1.71776-1.0053.9994-.93898,2.64326-.34366,3.83933 .31904.59778.85529,1.3118 1.61682,1.2338 .47853-.004 1.10888-.44334.82424-.97419-.38724-.53832-.99487-1.04796-.94903-1.77885 1.81492-3.28506 5.2732-3.7643 7.9726-2.12273z"/>
<path d="m491.28125,459.625c-.29307.008-.57248.11437-.84375.125h-.125c-.16241.01-.38094.0335-.5625.0625l-.25.0313c-.0678.0102-.10764.0313-.125.0313-.07,0-.20671.0105-.34375.0313s-.25388.0508-.3125.0625c-.0509.0102-.10106.0256-.15625.0625s-.12011.10493-.1875.15625c-.13479.10265-.28477.20415-.40625.28125-.10908.0692-.26281.12574-.40625.1875s-.29049.14022-.375.28125c-.26133.43612-.16949,1.00503-.0313,1.46875 .16194.54322.56406.94751.9375,1.34375 .50525.5361 1.10902,1.0393 1.75,1.40625 .34534.1977.84483.39928 1.28125.5625 .21821.0816.39802.16942.5625.21875s.29664.0625.375.0625l.3125.0313c.14523.0141.31036.0262.5.0313 .37929.0102.80457-.008 1.09375-.1875 .4055-.25152.53556-.78063.6875-1.1875 .21349-.57165.50285-1.2509.34375-1.875-.12265-.48116-.58342-.72778-.875-1.0625-.2997-.34405-.61382-.72889-.96875-1.03125-.47391-.40371-.93119-.89692-1.5625-1.0625-.0995-.0261-.21481-.0338-.3125-.0313z"/>
<path d="m280.35715,448.16575c-17.84192-6.07015-6.1723-20.44411 5.76628-32.6529l13.16229,2.6529-15.26786.26786 15.08928,2.23214-19.28571,1.33929 26.69643,1.25-28.03572,2.14286 30.625.35714-33.39285,5.08928 26.07143-.625-26.60715,7.14286 28.30357-2.23214-26.25,7.58928 31.25-5.53571-28.03571,11.07143"/>
<path d="m414.28572,488.96933c-3.8251,6.69839-8.68345,6.30376-14.23307,4.51531-12.94173-4.17069-18.7995-23.08701-15.78997-34.94497l13.77304-2.78463-14.28572,12.5 16.25-9.10714-15,15.53571 18.03572-14.46429-15.53572,20 19.10714-19.64285-17.14285,24.82143 20.89285-24.64286-16.78571,27.5 20.53571-26.60714-15.35714,31.07142 17.5-27.67857-10.89286,28.75 15.17858-29.46428-6.07143,24.64285"/>
<path d="m205.33112,317.75713c-4.5988-3.6887-5.81203-5.50192-2.98862-18.46556 .91766-4.21338.97926-7.27826 2.22604-9.53117 3.3919-6.12908 9.08942-6.24865 15.49379-7.13493l4.58053,11.16528-10.35715-9.82143 9.28572,15.53572-13.03572-14.64286 14.82143,20-18.92857-18.92857 21.96429,28.92857-24.28572-23.57143 23.03572,26.42857-25-21.25 18.92857,18.75-20.17857-11.60714 19.46428,14.82143-19.64285-7.85714 26.25,12.85714-21.60715-5.89286"/>
<path d="m388.51913,340.30226 14.78661,16.27207-8.7041-18.96971 10.90221,17.54446-5.29958-18.57887 9.07651,21.10425-5.82447-21.80584 11.00272,23.42906-6.35275-22.38642 10.48155,21.20328-6.2664-18.96664 12.01319,20.51777-7.14991-17.90041c-10.29846-9.13751-23.81042-5.53996-28.41304-1.41836"/>
</g>
<g transform="translate(-199.87912,-176.45763)">
<path d="m517.70318,453.08918c-10.28435,15.9149-31.73635,13.48119-47.84215,10.61968-51.67405-8.05267-107.12807-9.07136-152.73302-37.83596-36.18885-26.20178-62.67593-63.74329-82.59435-103.24813-15.65584-36.38069-11.31534-79.45413 8.55318-113.35651 4.06792-7.59597 13.92313-22.17603 17.15971-23.62034-7.27065,16.55889-18.69857,31.7797-20.28927,50.32456-8.17855,28.01858-14.5158,61.30073 3.52534,86.98761 11.38871,15.73286 35.54516,17.5564 42.75704,37.15558 4.99575,13.84572 18.70308,31.64196 34.35928,19.95393 9.97041-7.92088 29.9591-13.64945 32.26156,4.31076-1.07923,14.08437-32.80429,21.40162-12.88876,36.42415 14.51202,12.62586 35.38433,9.09929 52.41648,4.92968 14.42164,2.71565 27.49461,17.95506 42.29559,5.8741 16.39716-1.89881 19.07674,21.48955 35.70965,20.86753 14.6574,1.98413 29.76353,2.52829 44.45795,1.31375l2.85177-.70039z" opacity=".1216"/>
<path d="m507.09658,417.48131c-14.29373-4.12376-19.57137-24.39315-36.89141-21.7352-19.33026-2.85632-39.72579-4.8468-56.12152-16.57233-11.57091-8.07125-22.83524-17.15758-36.79421-20.77378-15.12257-4.83592-31.44293-5.64329-45.51848-13.59436-17.93374-8.63349-34.5256-20.67298-45.85084-37.27909-12.69565-17.61947-28.5233-32.97029-39.37422-51.89747-.89976-8.8621-2.61428-28.91357 4.54759-30.75623 5.94166,11.65648-1.44879,26.52449 8.57428,37.18276 14.06687,28.10716 36.42409,52.47579 63.94817,67.76793 26.72738,12.42136 55.87328,18.31792 83.0081,29.71182 32.82954,11.35988 66.61004,23.27653 93.23566,46.41837 3.78325,2.42397 10.04344,6.07015 7.23688,11.52758z" opacity=".1451"/>
</g>
</svg>
