<?xml version="1.0" encoding="iso-8859-1"?>
<!-- Generator: Adobe Illustrator 21.1.0, SVG Export Plug-In . SVG Version: 6.00 Build 0)  -->
<svg version="1.1" id="Calque_1" xmlns="http://www.w3.org/2000/svg" xmlns:xlink="http://www.w3.org/1999/xlink" x="0px" y="0px"
	 width="432px" height="432px" viewBox="0 0 432 432" enable-background="new 0 0 432 432" xml:space="preserve">
<g>
	<g>
		<path fill="#B78D5C" d="M244.895,310.002c-31.938-11.916-56.029-20.467-86.689-18.553c-16.147,1.01-36.216,4.984-51.133,2.463
			c-8.676-1.463-15.62-5.128-19.024-12.859c-0.604-1.363-1.099-2.868-1.47-4.497l-0.007-0.029
			c-0.766-3.386-1.019-7.355-0.663-12.016c0.49-6.448,5.483-10.479,13.511-12.669c37.867-10.354,143.198,20.164,160.922,30.093
			C281.826,293.963,276.836,321.928,244.895,310.002z"/>
		<g>
			<g>
				<path fill="#997048" d="M101.926,265.722c-4.568-9.234,11.61-8.13,15.937-7.575c5.109,0.656,10.205,1.36,15.33,1.894
					c10.251,1.067,20.533,1.784,30.813,2.504c1.911,0.134,2.427-2.824,0.502-2.958c-15.437-1.08-30.797-2.394-46.143-4.397
					c-5.297-0.692-11.886-1.574-16.55,1.765c-3.22,2.305-4.458,6.271-2.686,9.853C99.976,268.522,102.784,267.458,101.926,265.722
					L101.926,265.722z"/>
			</g>
			<g>
				<path fill="#997048" d="M90.877,266.903c-3.662,7.178,2.658,13.764,9.904,13.866c5.006,0.071,7.631-2.664,11.528-5.302
					c5.417-3.668,12.653-4.333,18.98-5.187c6.171-0.833,12.393-1.303,18.619-1.416c2.811-0.051,16.048-1.665,15.211,3.123
					c-0.841,4.81-12.113,5.338-15.56,5.854c-2.668,0.4-5.327,0.863-7.994,1.274c-1.48,0.228-2.961,0.451-4.445,0.65
					c-0.594,0.077-1.188,0.154-1.782,0.232c-2.729,0.729-2.567-0.073,0.485-2.406c1.805-0.68,0.727-3.48-1.085-2.798
					c-2.465,0.928-7.09,5.051-3.822,7.753c1.298,1.073,3.222,0.597,4.724,0.435c4.167-0.45,8.298-1.24,12.436-1.885
					c5.185-0.808,11.117-1.057,15.755-3.773c2.657-1.556,6.161-5.378,4.091-8.677c-2.1-3.348-7.447-2.832-10.804-2.827
					c-7.495,0.011-14.968,0.197-22.424,1.02c-6.73,0.743-14.177,1.425-20.456,4.162c-3.504,1.528-6.051,4.82-9.555,6.154
					c-5.675,2.161-14.689-1.931-11.078-9.008C94.487,266.424,91.752,265.187,90.877,266.903L90.877,266.903z"/>
			</g>
			<g>
				<path fill="#997048" d="M116.988,281.801c-2.902-0.505-4.684,2.348-2.932,4.826c2.553,3.61,9.807,3.265,13.593,3.164
					c16.127-0.433,31.905-4.528,48.073-4.542c1.929-0.002,1.613-2.986-0.302-2.985c-9.849,0.008-19.551,1.422-29.291,2.73
					c-4.711,0.633-9.43,1.232-14.173,1.57c-2.742,0.195-5.547,0.407-8.294,0.221c-1.083-0.064-2.156-0.2-3.221-0.409
					c-1.497-0.154-2.816-0.693-3.955-1.617C118.391,285.091,118.89,282.132,116.988,281.801L116.988,281.801z"/>
			</g>
			<g>
				<path fill="#997048" d="M181.68,266.944c7.685,0.271,15.397,0.568,22.936,2.21c7.615,1.659,15.17,4.164,22.491,6.829
					c3.363,1.224,6.688,2.578,9.885,4.193c2.005,1.013,9.26,4.276,9.21,7.22c-0.097,5.75-20.535-1.635-22.699-2.627
					c-1.759-0.806-3.001,1.925-1.245,2.73c4.445,2.037,9.07,3.563,13.917,4.295c3.143,0.474,7.94,1.445,10.884-0.153
					c5.964-3.237-1.006-9.595-4.311-11.684c-8.545-5.401-18.612-8.287-28.202-11.211c-10.696-3.261-21.225-4.367-32.363-4.76
					C180.277,263.918,179.756,266.876,181.68,266.944L181.68,266.944z"/>
			</g>
			<g>
				<path fill="#997048" d="M213.049,277.181c-4.747-1.402-9.729-2.646-14.691-2.909c-2.214-0.117-4.619,0.038-6.143,1.873
					c-4.349,5.238,3.746,9.887,7.613,11.351c8.881,3.362,18.236,5.705,27.413,8.085c4.795,1.244,9.601,2.445,14.4,3.678
					c2.699,0.693,5.396,1.395,8.087,2.117c2.676,0.719,7.281,1.172,9.08,3.409c1.205,1.499,3.639-0.257,2.425-1.768
					c-3.286-4.087-10.75-4.551-15.492-5.788c-7.489-1.954-15.008-3.796-22.487-5.787c-7.643-2.035-15.531-3.951-22.87-6.934
					c-1.267-0.515-3.919-1.488-4.687-2.569c-4.112-5.79,2.681-4.667,4.556-4.463c4.169,0.453,8.285,1.477,12.296,2.662
					C214.398,280.686,214.879,277.722,213.049,277.181L213.049,277.181z"/>
			</g>
			<g>
				<path fill="#997048" d="M256.182,288.907c0.602-2.167,6.265,4.308,6.534,4.732c1.382,2.173,2.132,4.556,2.412,7.105
					c0.211,1.918,3.196,1.62,2.985-0.302c-0.515-4.688-2.572-9.003-6.056-12.216c-2.579-2.378-7.508-4.591-8.834,0.179
					C252.706,290.266,255.67,290.749,256.182,288.907L256.182,288.907z"/>
			</g>
		</g>
	</g>
	<g>
		<g>
			<path fill="#821119" d="M262.529,256.075c3.08,17.866,24.027,80.397,34.192,78.857c10.165-1.54-0.308-24.335,3.388-24.951
				c3.696-0.616,34.808,65.92,49.594,59.451c14.786-6.469-6.966-89.022-74.023-126.911
				C271.77,246.834,262.529,256.075,262.529,256.075z"/>
			<path fill="#0071BC" d="M268.34,256.253c2.099,12.249,16.37,55.121,23.296,54.065s-0.21-16.684,2.309-17.106
				c2.519-0.422,23.716,45.195,33.79,40.76c10.074-4.435-4.746-61.034-50.435-87.01C274.636,249.917,268.34,256.253,268.34,256.253z
				"/>
			<path fill="#FBB03B" d="M271.52,259.421c1.912,5.007,11.553,21.953,14.414,20.927c2.861-1.026-1.476-7.042-0.439-7.431
				c1.037-0.389,13.855,17.139,17.776,14.42c3.921-2.719-7.095-25.428-28.708-32.597C273.674,256.213,271.52,259.421,271.52,259.421
				z"/>
		</g>
		<g>
			<path d="M228.241,270.122c-0.577-0.316-0.869-0.815-1.814-0.663c-11.063,0.753-32.679,7.64-25.897,16.703
				c7.324,9.788,4.449-8.214,14.442-11.157c1.487-0.438,2.904-0.835,4.255-1.201c-7.876,5.276-14.027,12.202-8.135,16.73
				c9.693,7.449,2.068-9.109,10.897-14.639c2.775-1.738,5.317-3.235,7.52-4.487C229.997,271.182,228.928,270.499,228.241,270.122z"
				/>
			<path d="M257.093,272.052c-0.727-0.399-1.096-1.027-2.287-0.836c-13.95,0.949-41.205,9.633-32.654,21.061
				c9.234,12.341,5.61-10.356,18.21-14.068c1.875-0.552,3.662-1.053,5.365-1.515c-9.931,6.653-17.686,15.386-10.257,21.095
				c12.222,9.393,2.608-11.486,13.74-18.459c3.499-2.192,6.704-4.079,9.482-5.657C259.307,273.389,257.959,272.527,257.093,272.052z
				"/>
		</g>
		<path fill="#9E1E28" d="M172.582,62.124c37.272,0,53.29,13.831,59.143,14.616s20.022-1.987,15.402,2.942
			s9.549,17.866,24.027,15.71c14.478-2.156,24.335,3.352,6.469,7.991s-17.25,8.951-11.089,10.799
			c6.161,1.848,2.772,6.161-4.313,4.004c-7.085-2.156,24.335,24.951,26.491,51.75s5.237,106.273-42.817,107.197
			s-43.741-66.228-81.63-93.335s-57.603-53.906-49.594-82.246S149.48,62.124,172.582,62.124z"/>
		<path fill="#821119" d="M223.716,271.589c20.546-2.595,9.241-54.83-17.866-81.938s-60.067-37.272-69-30.188
			C127.917,166.549,194.453,275.285,223.716,271.589z"/>
		<path fill="#FBB03B" d="M89.82,166.781c-3.892,0.295-16.427-17.864-10.267-39.425s30.287-35.831,50.102-33.47
			s10.575,32.135,9.446,36.961c-1.129,4.825-6.057,23.819-15.298,22.074c-9.24-1.745-20.534-10.678-25.667-7.392
			S96.596,166.267,89.82,166.781z"/>
		<g>
			<circle fill="#FFFFFF" cx="176.011" cy="103.383" r="26.642"/>
			<circle cx="176.011" cy="103.383" r="16.773"/>
			<circle fill="#FFFFFF" cx="176.011" cy="98.584" r="6.049"/>
			<circle fill="#FFFFFF" cx="169.961" cy="108.91" r="4.277"/>
		</g>
		<g>
			<path fill="#821119" d="M315.516,261.114c-15.1,2.77-34.2-50.82-36.97-50.82s6.78,29.88-2.16,30.49
				c-8.93,0.62-14.17-51.44-20.63-51.13c-6.47,0.31,1.23,31.11-5.55,31.73c-3.92,0.35-14.4-19.02-18.41-39.19
				c-0.36-1.82-0.67-3.64-0.92-5.46c-0.48-3.51-0.72-6.99-0.66-10.34c0.03-1.71,0.13-3.38,0.33-5.01
				c0.82-6.96,3.24-13.08,7.96-17.32c10.25-9.23,21.58-6.5,34.86,7.06c1.13,1.15,2.26,2.37,3.41,3.67c2.58,2.9,5.22,6.18,7.94,9.84
				c1.01,1.37,2.03,2.78,3.07,4.25c5.79,8.2,11.93,18.02,18.48,29.39C315.666,214.594,330.606,258.344,315.516,261.114z"/>
			<g>
				<g>
					<path fill="#0071BC" d="M287.786,168.884c-2.55,3.07-7.03,5.98-14.82,5.65c-1.12,1.54-2.79,2.75-4.93,3.55
						c-4.34,1.62-10.38,1.39-15.34-0.48c-2.18,2.19-5.78,3.9-10.13,4.72c-1.72,0.33-3.45,0.49-5.15,0.49
						c-1.94,0-3.83-0.21-5.62-0.62l-0.92-5.46c7.57,2.84,17.09-0.28,18.87-3.41l1.16-2.05l2.12,1.04c4.03,1.99,9.61,2.45,13.26,1.08
						c1.06-0.39,2.44-1.14,2.99-2.43l0.71-1.69l1.83,0.17c6.2,0.58,10.54-1.03,12.9-4.81L287.786,168.884z"/>
				</g>
				<g>
					<path fill="#FBB03B" d="M276.776,154.794c-2.38,2.3-6.07,4.15-11.7,3.95c-1.07,1.55-2.68,2.74-4.75,3.51
						c-3.84,1.42-8.9,1.2-13.17-0.48c-1.67,1.73-4.21,3.15-7.3,4.03c-2.06,0.59-4.16,0.87-6.22,0.87c-1.16,0-2.31-0.09-3.42-0.28
						c0.03-1.71,0.13-3.38,0.33-5.01c2.49,0.5,5.25,0.38,7.94-0.39c3.12-0.88,5.09-2.39,5.66-3.49l1.17-2.25l2.24,1.2
						c3.31,1.79,7.95,2.25,11.03,1.11c1.41-0.52,2.33-1.3,2.72-2.32l0.69-1.79l1.9,0.2c4.16,0.43,7.32-0.42,9.47-2.53
						C274.496,152.274,275.626,153.494,276.776,154.794z"/>
				</g>
			</g>
		</g>
	</g>
</g>
</svg>
