<?xml version="1.0" encoding="UTF-8" standalone="no"?>
<svg
   xmlns:dc="http://purl.org/dc/elements/1.1/"
   xmlns:cc="http://creativecommons.org/ns#"
   xmlns:rdf="http://www.w3.org/1999/02/22-rdf-syntax-ns#"
   xmlns:svg="http://www.w3.org/2000/svg"
   xmlns="http://www.w3.org/2000/svg"
   xmlns:sodipodi="http://sodipodi.sourceforge.net/DTD/sodipodi-0.dtd"
   xmlns:inkscape="http://www.inkscape.org/namespaces/inkscape"
   xml:space="preserve"
   width="247.64642mm"
   height="244.47557mm"
   version="1.1"
   style="clip-rule:evenodd;fill-rule:evenodd;image-rendering:optimizeQuality;shape-rendering:geometricPrecision;text-rendering:geometricPrecision"
   viewBox="0 0 247646.42 244475.57"
   id="svg80"
   sodipodi:docname="Jigglypuff.svg"
   inkscape:version="1.0.2 (e86c870879, 2021-01-15)"><metadata
   id="metadata84"><rdf:RDF><cc:Work
       rdf:about=""><dc:format>image/svg+xml</dc:format><dc:type
         rdf:resource="http://purl.org/dc/dcmitype/StillImage" /><dc:title></dc:title></cc:Work></rdf:RDF></metadata><sodipodi:namedview
   pagecolor="#ffffff"
   bordercolor="#666666"
   borderopacity="1"
   objecttolerance="10"
   gridtolerance="10"
   guidetolerance="10"
   inkscape:pageopacity="0"
   inkscape:pageshadow="2"
   inkscape:window-width="1920"
   inkscape:window-height="1016"
   id="namedview82"
   showgrid="false"
   fit-margin-top="0"
   fit-margin-left="0"
   fit-margin-right="0"
   fit-margin-bottom="0"
   inkscape:zoom="0.26930242"
   inkscape:cx="903.78855"
   inkscape:cy="1418.2835"
   inkscape:window-x="0"
   inkscape:window-y="27"
   inkscape:window-maximized="1"
   inkscape:current-layer="svg80" />
 <defs
   id="defs4">
  <style
   type="text/css"
   id="style2">
   <![CDATA[
    .fil2 {fill:black}
    .fil7 {fill:#020000}
    .fil5 {fill:#124558}
    .fil4 {fill:#15738A}
    .fil6 {fill:#1887A5}
    .fil10 {fill:#1DC3DB}
    .fil11 {fill:#1DC3DB}
    .fil8 {fill:#500816}
    .fil0 {fill:#F79CB1}
    .fil9 {fill:#FB6E77}
    .fil3 {fill:#FCFEFC}
    .fil1 {fill:#FDDAE6}
   ]]>
  </style>
 </defs>
 <g
   id="Слой_x0020_1"
   transform="translate(-57872.613,-45245.821)">
  <metadata
   id="CorelCorpID_0Corel-Layer" />
  <path
   class="fil0"
   d="m 124786,210195 c 1253,821 4194,5331 5179,6979 3869,6475 10901,20953 4590,27295 -7465,7502 -29891,-9068 -32309,-12524 1643,308 9014,4788 11546,6148 3443,1850 9873,4363 13835,4791 4523,487 5832,-2472 5819,-6391 -10446,4441 -28884,-8464 -26641,-17365 773,-3070 2330,-3596 4174,-5354 3519,-3354 8678,-5184 13807,-3579 z M 70947,76039 c 1,-2825 1395,-3370 3966,-3546 10561,-726 19954,1438 29094,5297 l 18313,8561 c -643,899 -3603,2676 -4703,3524 -5877,4536 -11728,11095 -16484,16744 -4083,4849 -8740,12173 -10372,14061 -6380,-8151 -6389,-6321 -12429,-18402 -4399,-8801 -7387,-15367 -7385,-26239 z m 208845,131569 -8280,4132 c -4509,2037 -10631,4660 -15755,5201 4306,8861 -7433,16751 -15049,19373 -3335,1149 -7129,1524 -10746,220 -33,9781 9567,6124 15031,3661 l 16168,-8248 c -2726,3932 -36055,28639 -34762,3101 128,-2516 1343,-5935 2206,-8080 l 3333,-7093 c -6207,890 -17507,-77 -23280,-691 -4123,-438 -17774,-2432 -20055,-4291 -6465,2327 -17271,1247 -22332,-6334 -870,-1303 -1060,-1672 -1746,-3395 l -1394,-3792 c -2029,-857 -6672,-5435 -8247,-7138 -1122,-1212 -2251,-2881 -3309,-4209 -1229,-1542 -2134,-3273 -3492,-4469 -4391,3266 -7187,8735 -18025,10507 -8374,1368 -14828,-327 -21232,-6008 -1759,-1560 -3130,-2942 -4496,-4996 -2901,-4367 -4751,-8215 -5585,-13399 -1572,-9777 1539,-22303 7185,-29787 1670,-2213 2600,-3143 4470,-5021 4746,-4767 10951,-6319 11988,-7000 -207,-6608 1627,-11675 3922,-16242 1415,-2816 6450,-10557 8661,-11798 900,17191 4041,25509 14022,35419 896,890 1412,1504 2437,2309 2935,2304 1581,1823 5640,4245 9366,5587 15946,7830 27417,7802 15954,-38 31906,-10347 32882,-27288 -848,1037 -1081,2665 -1650,3952 -546,1235 -1151,2457 -1893,3643 -2366,3780 -7098,8894 -10832,11318 -1004,653 -2447,1587 -3420,2116 -7526,4085 -22678,3686 -32239,-1125 -12518,-6298 -20824,-16137 -27173,-28597 -2532,-4968 -4214,-10800 -5028,-17122 -679,-5270 344,-17109 1820,-20418 -2166,424 -2316,1511 -4252,1879 1124,-1639 1950,-1976 3460,-3145 -2792,-2429 -29375,-9961 -34393,-11013 -6683,-1402 -12154,-2409 -20141,-2408 -6605,0 -16687,-434 -19235,3708 -2771,4503 1704,23032 3171,28971 1968,7962 5909,17429 8999,25020 1197,2939 5780,13542 7430,15430 1051,-1720 2521,-4783 3961,-5855 -1607,6956 -3503,10429 -5348,20707 -954,5314 -3221,18099 -2432,23857 496,3617 468,8385 1005,12046 1421,9676 3048,17688 6624,26606 736,1836 1440,3013 2096,4628 3622,8921 15326,25815 21808,30803 10070,7749 21726,15027 33877,19130 10745,3630 8096,3393 20286,5821 10692,2130 25182,2026 36324,-135 20266,-3931 47885,-16142 60624,-32336 3788,-4816 7630,-9988 10805,-15699 4866,-8751 5029,-10142 8169,-18473 z"
   id="path7" />
  <path
   class="fil1"
   d="m 206232,155546 c 0,-2908 2607,-9433 3822,-11603 8149,-14555 25429,-20311 40145,-9423 5693,4213 10668,11036 12737,18113 2815,9632 3218,16789 -379,26412 -780,2086 -4008,7060 -5391,8452 -9630,9685 -20340,12064 -32723,5607 -7253,-3783 -11935,-10821 -14933,-18289 -3352,-8352 -3277,-10975 -3278,-19269 z m 11137,-31247 c -976,16941 -16928,27250 -32882,27288 -11471,28 -18051,-2215 -27417,-7802 -4059,-2422 -2705,-1941 -5640,-4245 -1025,-805 -1541,-1419 -2437,-2309 -9981,-9910 -13122,-18228 -14022,-35419 -2211,1241 -7246,8982 -8661,11798 -2295,4567 -4129,9634 -3922,16242 3404,-360 4300,-1772 11287,-639 7450,1208 11287,4785 15898,9416 1797,1804 3812,5122 4895,7763 3047,7430 3817,12745 1524,21813 -2608,10314 -3826,10070 -7909,17351 1358,1196 2263,2927 3492,4469 1058,1328 2187,2997 3309,4209 1575,1703 6218,6281 8247,7138 -51,-2996 -903,-5134 -764,-8598 1415,956 2072,1806 3899,2735 8376,4261 17641,4517 26661,1718 4988,-1547 5154,-2463 8116,-4453 190,4914 -1204,10982 -2987,14330 -2111,3962 -4863,6329 -9453,7789 2281,1859 15932,3853 20055,4291 5773,614 17073,1581 23280,691 1214,-1764 4513,-8230 6681,-9695 -208,1043 -1973,4726 -2593,6018 -2464,5133 -6076,14396 -6064,20336 3617,1304 7411,929 10746,-220 7616,-2622 19355,-10512 15049,-19373 5124,-541 11246,-3164 15755,-5201 l 8280,-4132 c 2096,-6776 5231,-20498 5162,-28324 -34,-3919 770,-6612 165,-10855 -1147,-8051 -1045,-10730 -2842,-19706 -1358,-6788 -2992,-11891 -4830,-17885 l -686,-1147 c -41,-97 -70,-202 -107,-301 -170,-459 -242,-938 -440,-1492 -726,-2038 -2941,-5415 -3573,-7198 l -14362,-18785 c -5169,-6671 -17196,-15545 -17206,-15559 -1546,-1048 -3403,-2245 -5081,-3297 -1605,-1008 -3619,-2319 -5290,-3057 -1760,-475 -6521,-3787 -9027,-4339 666,9452 152,19144 -9079,24521 620,1255 662,1071 1366,2136 2703,4088 4625,10143 4550,15260 -43,2978 -961,4360 -1143,6719 z"
   id="path9" />
  <path
   class="fil2"
   d="m 255296,257188 c 2901,871 8973,5616 10965,7625 2325,2345 6977,7591 6775,12169 354,519 181,-48 360,886 73,378 98,659 89,1050 -47,2014 -833,4764 -2619,5740 -9426,5152 -57989,-4467 -63794,-8437 30,-16 14256,-4704 19468,-7013 8051,-3569 16030,-7293 23035,-12577 935,-706 2079,-2412 5721,557 z M 90363,276978 c -103,-2889 1690,-5850 2968,-7674 1445,-2065 3355,-4568 5310,-5730 2532,-2423 11175,-8329 13381,-8080 462,52 5391,3579 6318,4160 9284,5811 13135,6730 21832,10999 3946,1938 14143,4486 16167,5567 -4098,2801 -28206,7434 -34341,8302 -5854,827 -23507,2999 -29189,266 -1411,-679 -1998,-1708 -2389,-3146 -795,-2926 -570,-3902 -57,-4664 z M 199822,95419 c -556,3059 -2256,7182 2824,10657 -429,-1644 -1353,-1867 -1562,-4335 -209,-2457 -29,-3191 794,-4717 1763,376 5779,3268 7032,4421 3825,3517 6475,11706 5982,16455 -270,2599 -938,6956 -2314,8736 -605,5717 -8634,12545 -13742,14792 -14429,6348 -31007,2456 -41954,-8526 -6563,-6582 -7444,-8436 -12043,-16041 -3647,-6031 -6262,-14804 -6249,-22230 27,-16582 4251,-24926 14529,-34915 5070,-4927 17382,-10596 24701,-10575 5330,-1153 12511,155 16596,1528 5948,1998 4391,1622 9711,4529 3299,1803 9047,8200 11205,12532 2515,5049 3219,7996 3155,15313 -114,6603 -5812,16144 -9266,14160 l -4919,-2934 c 1280,-764 1957,-659 3067,-1245 -3200,-1954 -7144,2158 -7547,2395 z m 17547,28880 c 182,-2359 1100,-3741 1143,-6719 75,-5117 -1847,-11172 -4550,-15260 -704,-1065 -746,-881 -1366,-2136 9231,-5377 9745,-15069 9079,-24521 2506,552 7267,3864 9027,4339 -1024,-1680 -1978,-2054 -3458,-3202 1202,-1043 13958,-5230 16711,-6153 11785,-3949 25337,-7270 38222,-7268 20097,2 22491,258 17770,23703 -1792,8896 -2643,10112 -4858,17691 -1560,5339 -10700,28343 -13671,31735 -734,-1218 -2531,-5092 -3971,-5670 1838,5994 3472,11097 4830,17885 1797,8976 1695,11655 2842,19706 605,4243 -199,6936 -165,10855 69,7826 -3066,21548 -5162,28324 -3140,8331 -3303,9722 -8169,18473 -3175,5711 -7017,10883 -10805,15699 -12739,16194 -40358,28405 -60624,32336 -11142,2161 -25632,2265 -36324,135 -12190,-2428 -9541,-2191 -20286,-5821 -12151,-4103 -23807,-11381 -33877,-19130 -6482,-4988 -18186,-21882 -21808,-30803 -656,-1615 -1360,-2792 -2096,-4628 -3576,-8918 -5203,-16930 -6624,-26606 -537,-3661 -509,-8429 -1005,-12046 -789,-5758 1478,-18543 2432,-23857 1845,-10278 3741,-13751 5348,-20707 -1440,1072 -2910,4135 -3961,5855 -1650,-1888 -6233,-12491 -7430,-15430 -3090,-7591 -7031,-17058 -8999,-25020 -1467,-5939 -5942,-24468 -3171,-28971 2548,-4142 12630,-3708 19235,-3708 7987,-1 13458,1006 20141,2408 5018,1052 31601,8584 34393,11013 -1510,1169 -2336,1506 -3460,3145 1936,-368 2086,-1455 4252,-1879 -1476,3309 -2499,15148 -1820,20418 814,6322 2496,12154 5028,17122 6349,12460 14655,22299 27173,28597 9561,4811 24713,5210 32239,1125 973,-529 2416,-1463 3420,-2116 3734,-2424 8466,-7538 10832,-11318 742,-1186 1347,-2408 1893,-3643 569,-1287 802,-2915 1650,-3952 z M 138569,73646 c -1181,-260 -2720,-1089 -3931,-1567 l -12318,-4296 c -5559,-1857 -11111,-3324 -16958,-4798 -11104,-2798 -28619,-4968 -39331,-2148 -7104,1870 -8266,5408 -8151,14031 201,15127 11727,49010 20603,64049 1402,2374 1964,1493 530,5706 -541,1588 -894,2787 -1262,4278 -5387,21833 -3675,45098 4442,65414 4135,10348 6130,13091 11541,21291 l 15148,17227 c -3125,1829 -6762,3212 -10124,6075 -4625,3939 -9344,8247 -11458,14648 -2033,6155 -768,12692 4370,14745 5450,2177 12886,1261 19229,944 13119,-653 23651,-2975 35918,-6011 l 12007,-3816 c 7709,-3112 2411,-1290 13021,-488 6777,512 13249,652 20082,-33 1914,-192 7712,-1420 9380,-963 915,250 2677,1243 3845,1709 1366,544 2402,881 3796,1346 2516,839 5208,1642 7961,2323 16436,4071 20366,4710 35975,5956 6100,487 14131,1056 19139,-1079 5014,-2136 6072,-8936 3988,-14929 -2608,-7497 -11143,-15236 -18090,-18698 -1250,-623 -2322,-1104 -3393,-1729 472,-656 2022,-1832 2829,-2647 5146,-5193 13727,-15254 16914,-21455 5912,-11502 9321,-17841 12093,-31815 3669,-18495 3529,-35365 -2269,-53190 -1290,-3966 -29,-2268 4152,-10985 680,-1419 994,-2421 1706,-3831 2598,-5142 5996,-14027 7801,-19493 953,-2886 1796,-5571 2669,-8407 848,-2761 1380,-5426 2162,-8517 1385,-5477 2942,-12807 2934,-19221 -11,-8476 -2132,-10979 -9086,-12675 -3441,-839 -16809,-1248 -21211,-610 -15483,2245 -28936,5290 -43562,11024 l -7631,3040 c -3553,-2318 -2384,-947 -4008,-5079 -4045,-10295 -13446,-17163 -23561,-21137 -13751,-5402 -30799,-1872 -41944,6158 -3133,2258 -6955,5664 -9261,8538 -2538,3166 -5622,7067 -6686,11115 z"
   id="path11" />
  <path
   class="fil1"
   d="m 177820,49141 -1700,760 c -895,322 -1169,401 -1948,799 -8797,4489 -14000,11707 -16836,21542 -1931,6695 -1524,13189 -1354,19616 169,6365 2459,12783 4309,17854 1101,3020 2150,4605 3587,7095 818,1418 1046,2185 2038,3499 7999,10600 18191,17682 32845,14728 7728,-1558 9609,-3861 13817,-8398 1376,-1780 2044,-6137 2314,-8736 493,-4749 -2157,-12938 -5982,-16455 -1253,-1153 -5269,-4045 -7032,-4421 -823,1526 -1003,2260 -794,4717 209,2468 1133,2691 1562,4335 -5080,-3475 -3380,-7598 -2824,-10657 392,-3994 3995,-8525 6415,-10271 3975,-2868 6755,-4167 12250,-2105 64,-7317 -640,-10264 -3155,-15313 -2158,-4332 -7906,-10729 -11205,-12532 -5320,-2907 -3763,-2531 -9711,-4529 -4085,-1373 -11266,-2681 -16596,-1528 z"
   id="path13" />
  <path
   class="fil0"
   d="m 212578,126636 c -4208,4537 -6089,6840 -13817,8398 -14654,2954 -24846,-4128 -32845,-14728 -992,-1314 -1220,-2081 -2038,-3499 -1437,-2490 -2486,-4075 -3587,-7095 -1850,-5071 -4140,-11489 -4309,-17854 -170,-6427 -577,-12921 1354,-19616 2836,-9835 8039,-17053 16836,-21542 779,-398 1053,-477 1948,-799 l 1700,-760 c -7319,-21 -19631,5648 -24701,10575 -10278,9989 -14502,18333 -14529,34915 -13,7426 2602,16199 6249,22230 4599,7605 5480,9459 12043,16041 10947,10982 27525,14874 41954,8526 5108,-2247 13137,-9075 13742,-14792 z"
   id="path15" />
  <path
   class="fil0"
   d="m 230702,80002 c 1671,738 3685,2049 5290,3057 1678,1052 3535,2249 5081,3297 3481,-2027 7713,-3738 11431,-5575 3648,-1801 7746,-3289 11753,-4858 7191,-2815 13579,-3404 21483,-3445 2644,-14 5683,-220 6476,1824 3262,8401 -7598,30139 -12259,37096 -4270,6375 -3857,4829 -7316,9302 632,1783 2847,5160 3573,7198 198,554 270,1033 440,1492 37,99 66,204 107,301 l 686,1147 c 1440,578 3237,4452 3971,5670 2971,-3392 12111,-26396 13671,-31735 2215,-7579 3066,-8795 4858,-17691 4721,-23445 2327,-23701 -17770,-23703 -12885,-2 -26437,3319 -38222,7268 -2753,923 -15509,5110 -16711,6153 1480,1148 2434,1522 3458,3202 z"
   id="path17" />
  <path
   class="fil2"
   d="m 241073,86356 c 10,14 12037,8888 17206,15559 l 14362,18785 c 3459,-4473 3046,-2927 7316,-9302 4661,-6957 15521,-28695 12259,-37096 -793,-2044 -3832,-1838 -6476,-1824 -7904,41 -14292,630 -21483,3445 -4007,1569 -8105,3057 -11753,4858 -3718,1837 -7950,3548 -11431,5575 z"
   id="path19" />
  <path
   class="fil2"
   d="m 70947,76039 c -2,10872 2986,17438 7385,26239 6040,12081 6049,10251 12429,18402 1632,-1888 6289,-9212 10372,-14061 4756,-5649 10607,-12208 16484,-16744 1100,-848 4060,-2625 4703,-3524 l -18313,-8561 c -9140,-3859 -18533,-6023 -29094,-5297 -2571,176 -3965,721 -3966,3546 z"
   id="path21" />
  <path
   class="fil3"
   d="m 106154,163853 c -3,-3103 1136,-7555 1928,-9939 2887,-8695 8639,-14523 17752,-16658 6999,-1639 13521,2051 17018,5326 1828,1711 3596,4523 4821,6648 5013,8699 1448,21783 -4051,29150 -4555,6101 -9465,8808 -17295,8810 -12643,2 -20161,-11780 -20173,-23337 z m -5937,1978 c 0,4712 923,7682 2319,11923 2861,8684 12669,16954 22999,16954 3853,0 8639,-1540 12200,-3228 6917,-3279 11508,-10405 14305,-17341 3908,-9692 4810,-19498 -262,-29013 -4751,-8913 -16714,-17343 -27985,-13474 -8233,2827 -11510,5094 -16800,12077 -3966,5234 -6776,15430 -6776,22102 z"
   id="path23" />
  <path
   class="fil3"
   d="m 213361,162271 c -1161,-6130 1729,-12998 5582,-17743 3371,-4152 8463,-7822 16173,-7591 3303,100 6396,1414 8831,2649 4558,2310 9244,7948 10895,12836 477,1416 1100,2979 1449,4483 6375,27439 -22683,39856 -35995,22154 -3569,-4746 -5646,-9978 -6935,-16788 z m -5156,-6329 c 0,7270 106,10631 3050,17916 3644,9015 9705,17274 19795,19762 10332,2548 17488,251 24929,-7706 1333,-1425 4094,-5922 4792,-7866 2785,-7764 2773,-10984 1704,-18619 -1637,-11687 -7519,-19924 -17396,-25724 -8812,-5174 -20832,-2689 -26895,3339 -2645,2630 -4469,4425 -6411,7828 -1096,1921 -3568,8324 -3568,11070 z"
   id="path25" />
  <path
   class="fil0"
   d="m 98641,263574 c 181,107 11801,12387 23272,16226 -2,1 -31124,6215 -31550,-2822 -513,762 -738,1738 57,4664 391,1438 978,2467 2389,3146 5682,2733 23335,561 29189,-266 6135,-868 30243,-5501 34341,-8302 -2024,-1081 -12221,-3629 -16167,-5567 -8697,-4269 -12548,-5188 -21832,-10999 -927,-581 -5856,-4108 -6318,-4160 -2206,-249 -10849,5657 -13381,8080 z"
   id="path27" />
  <path
   class="fil1"
   d="m 273036,276982 c 202,-4578 -4450,-9824 -6775,-12169 -1992,-2009 -8064,-6754 -10965,-7625 -903,1333 -5299,4603 -7016,5673 l -8303,4751 c -2847,1522 -5645,3015 -8720,4327 l -9136,3824 12356,3042 c 8586,1892 19152,2909 27924,2949 4597,21 10434,-322 10635,-4772 z"
   id="path29" />
  <path
   class="fil4"
   d="m 222026,177708 c 4564,-2976 5230,-5299 14281,-5184 4296,54 10014,1395 13511,3488 1570,940 1038,-18 1110,1773 68,-76 167,-299 196,-235 151,340 3121,-4624 3809,-10494 486,-4146 -91,-8898 -1499,-12307 -396,4433 -3176,7962 -7129,9615 -10854,4541 -23189,-4062 -21388,-17423 96,-711 446,-2412 749,-3213 481,-1271 977,-1402 1005,-2842 -5506,1577 -10141,9298 -11131,16073 -968,6619 2991,18212 6486,20749 z"
   id="path31" />
  <path
   class="fil5"
   d="m 123949,147240 c -1,-3429 2939,-6809 5949,-7140 9325,-1026 8304,12212 1018,13736 -4962,1038 -6967,-2211 -6967,-6596 z m -9199,-1182 c -357,2843 -1058,3958 -460,7673 451,2802 778,4549 2017,6693 5438,9410 18900,6684 24348,1933 3522,-3073 4297,-6659 4764,-12718 -933,-2780 -3480,-5221 -5523,-6873 -2162,-1748 -4895,-3278 -8120,-3742 -7601,-1097 -14026,3306 -17026,7034 z"
   id="path33" />
  <path
   class="fil1"
   d="m 133446,236493 c 15,-4875 -1862,-10079 -3387,-13872 -879,-2185 -1599,-4206 -2544,-6159 -585,-1208 -2501,-5185 -2729,-6267 -5129,-1605 -10288,225 -13807,3579 -1844,1758 -3401,2284 -4174,5354 -2243,8901 16195,21806 26641,17365 z"
   id="path35" />
  <path
   class="fil4"
   d="m 115330,180926 c 748,-3708 8137,-6971 11632,-8147 4383,-1474 12921,-1784 17203,681 1643,-1594 3427,-8888 3824,-11684 495,-3497 -742,-10769 -2570,-12137 -467,6059 -1242,9645 -4764,12718 -5448,4751 -18910,7477 -24348,-1933 -1239,-2144 -1566,-3891 -2017,-6693 -598,-3715 103,-4830 460,-7673 -3508,2899 -6316,11620 -6610,17823 -301,6348 3568,14780 7190,17045 z"
   id="path37" />
  <path
   class="fil0"
   d="m 273036,276982 c -201,4450 -6038,4793 -10635,4772 -8772,-40 -19338,-1057 -27924,-2949 l -12356,-3042 9136,-3824 c 3075,-1312 5873,-2805 8720,-4327 l 8303,-4751 c 1717,-1070 6113,-4340 7016,-5673 -3642,-2969 -4786,-1263 -5721,-557 -7005,5284 -14984,9008 -23035,12577 -5212,2309 -19438,6997 -19468,7013 5805,3970 54368,13589 63794,8437 1786,-976 2572,-3726 2619,-5740 9,-391 -16,-672 -89,-1050 -179,-934 -6,-367 -360,-886 z"
   id="path39" />
  <path
   class="fil5"
   d="m 234311,146053 c 4,-7674 11456,-6900 12245,2839 612,7558 -12251,8505 -12245,-2839 z m -7640,-5167 c -28,1440 -524,1571 -1005,2842 -303,801 -653,2502 -749,3213 -1801,13361 10534,21964 21388,17423 3953,-1653 6733,-5182 7129,-9615 -1273,-5599 -5498,-10299 -9404,-12872 -3560,-2345 -9120,-3665 -13376,-2646 -1023,246 -3266,719 -3983,1655 z"
   id="path41" />
  <path
   class="fil2"
   d="m 208205,155942 c 0,-2746 2472,-9149 3568,-11070 1942,-3403 3766,-5198 6411,-7828 6063,-6028 18083,-8513 26895,-3339 9877,5800 15759,14037 17396,25724 1069,7635 1081,10855 -1704,18619 -698,1944 -3459,6441 -4792,7866 -7441,7957 -14597,10254 -24929,7706 -10090,-2488 -16151,-10747 -19795,-19762 -2944,-7285 -3050,-10646 -3050,-17916 z m -1973,-396 c 1,8294 -74,10917 3278,19269 2998,7468 7680,14506 14933,18289 12383,6457 23093,4078 32723,-5607 1383,-1392 4611,-6366 5391,-8452 3597,-9623 3194,-16780 379,-26412 -2069,-7077 -7044,-13900 -12737,-18113 -14716,-10888 -31996,-5132 -40145,9423 -1215,2170 -3822,8695 -3822,11603 z"
   id="path43" />
  <path
   class="fil2"
   d="m 100217,165831 c 0,-6672 2810,-16868 6776,-22102 5290,-6983 8567,-9250 16800,-12077 11271,-3869 23234,4561 27985,13474 5072,9515 4170,19321 262,29013 -2797,6936 -7388,14062 -14305,17341 -3561,1688 -8347,3228 -12200,3228 -10330,0 -20138,-8270 -22999,-16954 -1396,-4241 -2319,-7211 -2319,-11923 z m 22171,-35979 c -1037,681 -7242,2233 -11988,7000 -1870,1878 -2800,2808 -4470,5021 -5646,7484 -8757,20010 -7185,29787 834,5184 2684,9032 5585,13399 1366,2054 2737,3436 4496,4996 6404,5681 12858,7376 21232,6008 10838,-1772 13634,-7241 18025,-10507 4083,-7281 5301,-7037 7909,-17351 2293,-9068 1523,-14383 -1524,-21813 -1083,-2641 -3098,-5959 -4895,-7763 -4611,-4631 -8448,-8208 -15898,-9416 -6987,-1133 -7883,279 -11287,639 z"
   id="path45" />
  <path
   class="fil1"
   d="m 90363,276978 c 426,9037 31548,2823 31550,2822 -11471,-3839 -23091,-16119 -23272,-16226 -1955,1162 -3865,3665 -5310,5730 -1278,1824 -3071,4785 -2968,7674 z"
   id="path47" />
  <path
   class="fil2"
   d="m 226671,140886 c 717,-936 2960,-1409 3983,-1655 4256,-1019 9816,301 13376,2646 3906,2573 8131,7273 9404,12872 1408,3409 1985,8161 1499,12307 -688,5870 -3658,10834 -3809,10494 -29,-64 -128,159 -196,235 -3972,6807 -14671,9725 -23219,5334 -1127,-579 -798,-492 -1609,-1161 -677,-556 -910,-659 -1572,-1204 -1055,-866 -2080,-1616 -2502,-3046 -3495,-2537 -7454,-14130 -6486,-20749 990,-6775 5625,-14496 11131,-16073 z m -13310,21385 c 1289,6810 3366,12042 6935,16788 13312,17702 42370,5285 35995,-22154 -349,-1504 -972,-3067 -1449,-4483 -1651,-4888 -6337,-10526 -10895,-12836 -2435,-1235 -5528,-2549 -8831,-2649 -7710,-231 -12802,3439 -16173,7591 -3853,4745 -6743,11613 -5582,17743 z"
   id="path49" />
  <path
   class="fil2"
   d="m 144165,173460 c -646,1930 -1992,3662 -3136,5096 l -4585,4116 c -2758,1906 -7037,2828 -10461,2492 l -2722,-443 c -1043,-326 -222,145 -843,-388 -2361,15 -6136,-2080 -7088,-3407 -3622,-2265 -7491,-10697 -7190,-17045 294,-6203 3102,-14924 6610,-17823 3000,-3728 9425,-8131 17026,-7034 3225,464 5958,1994 8120,3742 2043,1652 4590,4093 5523,6873 1828,1368 3065,8640 2570,12137 -397,2796 -2181,10090 -3824,11684 z m -38011,-9607 c 12,11557 7530,23339 20173,23337 7830,-2 12740,-2709 17295,-8810 5499,-7367 9064,-20451 4051,-29150 -1225,-2125 -2993,-4937 -4821,-6648 -3497,-3275 -10019,-6965 -17018,-5326 -9113,2135 -14865,7963 -17752,16658 -792,2384 -1931,6836 -1928,9939 z"
   id="path51" />
  <path
   class="fil6"
   d="m 122418,184333 z m -3205,-3940 c 997,5248 12343,4894 10901,-1004 -635,-2595 -2953,-3881 -6193,-3783 -2614,79 -5298,1683 -4708,4787 z m -3883,533 c 952,1327 4727,3422 7088,3407 621,533 -200,62 843,388 l 2722,443 c 3424,336 7703,-586 10461,-2492 l 4585,-4116 c 1144,-1434 2490,-3166 3136,-5096 -4282,-2465 -12820,-2155 -17203,-681 -3495,1176 -10884,4439 -11632,8147 z"
   id="path53" />
  <path
   class="fil7"
   d="m 195539,207041 c -2607,8839 -24997,8901 -27674,-2 -380,-471 158,332 -547,-695 -48,-71 -117,-169 -165,-245 l -669,-1326 c -773,-1786 -2134,-6327 -2043,-7944 1049,453 2103,1282 3461,1792 5227,1961 7709,2396 13803,2400 8486,7 10845,-1019 17303,-4218 29,2298 -1648,7746 -3094,9784 z m -32408,-5669 1394,3792 c 686,1723 876,2092 1746,3395 5061,7581 15867,8661 22332,6334 4590,-1460 7342,-3827 9453,-7789 1783,-3348 3177,-9416 2987,-14330 -2962,1990 -3128,2906 -8116,4453 -9020,2799 -18285,2543 -26661,-1718 -1827,-929 -2484,-1779 -3899,-2735 -139,3464 713,5602 764,8598 z"
   id="path55" />
  <path
   class="fil6"
   d="m 225637,179676 c -590,-3105 2094,-4708 4708,-4787 3240,-98 5558,1187 6193,3783 1442,5898 -9904,6252 -10901,1004 z m -3611,-1968 c 422,1430 1447,2180 2502,3046 662,545 895,648 1572,1204 811,669 482,582 1609,1161 8548,4391 19247,1473 23219,-5334 -72,-1791 460,-833 -1110,-1773 -3497,-2093 -9215,-3434 -13511,-3488 -9051,-115 -9717,2208 -14281,5184 z"
   id="path57" />
  <path
   class="fil8"
   d="m 167865,207039 c 8337,-2742 19329,-2756 27674,2 l 375,-454 c 1446,-2038 3123,-7486 3094,-9784 -6458,3199 -8817,4225 -17303,4218 -6094,-4 -8576,-439 -13803,-2400 -1358,-510 -2412,-1339 -3461,-1792 -91,1617 1270,6158 2043,7944 l 669,1326 c 48,76 117,174 165,245 705,1027 167,224 547,695 z"
   id="path59" />
  <path
   class="fil2"
   d="m 231938,219875 -3333,7093 c -863,2145 -2078,5564 -2206,8080 -1293,25538 32036,831 34762,-3101 l -16168,8248 c -5464,2463 -15064,6120 -15031,-3661 -12,-5940 3600,-15203 6064,-20336 620,-1292 2385,-4975 2593,-6018 -2168,1465 -5467,7931 -6681,9695 z"
   id="path61" />
  <path
   class="fil2"
   d="m 133446,236493 c 13,3919 -1296,6878 -5819,6391 -3962,-428 -10392,-2941 -13835,-4791 -2532,-1360 -9903,-5840 -11546,-6148 2418,3456 24844,20026 32309,12524 6311,-6342 -721,-20820 -4590,-27295 -985,-1648 -3926,-6158 -5179,-6979 228,1082 2144,5059 2729,6267 945,1953 1665,3974 2544,6159 1525,3793 3402,8997 3387,13872 z"
   id="path63" />
  <path
   class="fil9"
   d="m 167865,207039 c 2677,8903 25067,8841 27674,2 -8345,-2758 -19337,-2744 -27674,-2 z"
   id="path65" />
  <path
   class="fil0"
   d="m 199822,95419 c 403,-237 4347,-4349 7547,-2395 -1110,586 -1787,481 -3067,1245 l 4919,2934 c 3454,1984 9152,-7557 9266,-14160 -5495,-2062 -8275,-763 -12250,2105 -2420,1746 -6023,6277 -6415,10271 z"
   id="path67" />
  <path
   class="fil3"
   d="m 123949,147240 c 0,4385 2005,7634 6967,6596 7286,-1524 8307,-14762 -1018,-13736 -3010,331 -5950,3711 -5949,7140 z"
   id="path69" />
  <path
   class="fil3"
   d="m 234311,146053 c -6,11344 12857,10397 12245,2839 -789,-9739 -12241,-10513 -12245,-2839 z"
   id="path71" />
  <path
   class="fil10"
   d="m 225637,179676 c 997,5248 12343,4894 10901,-1004 -635,-2596 -2953,-3881 -6193,-3783 -2614,79 -5298,1682 -4708,4787 z"
   id="path73" />
  <line
   class="fil10"
   x1="122418"
   y1="184333"
   x2="122418"
   y2="184333"
   id="line75" />
  <path
   class="fil11"
   d="m 119213,180393 c 997,5248 12343,4894 10901,-1004 -635,-2595 -2953,-3881 -6193,-3783 -2614,79 -5298,1683 -4708,4787 z"
   id="path77" />
 </g>
</svg>
