<?xml version="1.0" encoding="UTF-8" standalone="no"?>
<svg
   xmlns:dc="http://purl.org/dc/elements/1.1/"
   xmlns:cc="http://creativecommons.org/ns#"
   xmlns:rdf="http://www.w3.org/1999/02/22-rdf-syntax-ns#"
   xmlns:svg="http://www.w3.org/2000/svg"
   xmlns="http://www.w3.org/2000/svg"
   xmlns:sodipodi="http://sodipodi.sourceforge.net/DTD/sodipodi-0.dtd"
   xmlns:inkscape="http://www.inkscape.org/namespaces/inkscape"
   id="svg8"
   version="1.1"
   viewBox="0 0 198.69351 197.11215"
   height="197.11215mm"
   width="198.69351mm"
   sodipodi:docname="pikachu.svg"
   inkscape:version="1.0.2 (e86c870879, 2021-01-15)">
  <sodipodi:namedview
     pagecolor="#ffffff"
     bordercolor="#666666"
     borderopacity="1"
     objecttolerance="10"
     gridtolerance="10"
     guidetolerance="10"
     inkscape:pageopacity="0"
     inkscape:pageshadow="2"
     inkscape:window-width="1920"
     inkscape:window-height="1016"
     id="namedview17"
     showgrid="false"
     fit-margin-top="0"
     fit-margin-left="0"
     fit-margin-right="0"
     fit-margin-bottom="0"
     inkscape:zoom="0.76257015"
     inkscape:cx="379.31552"
     inkscape:cy="390.08406"
     inkscape:window-x="0"
     inkscape:window-y="27"
     inkscape:window-maximized="1"
     inkscape:current-layer="svg8" />
  <defs
     id="defs2" />
  <metadata
     id="metadata5">
    <rdf:RDF>
      <cc:Work
         rdf:about="">
        <dc:format>image/svg+xml</dc:format>
        <dc:type
           rdf:resource="http://purl.org/dc/dcmitype/StillImage" />
        <dc:title></dc:title>
      </cc:Work>
    </rdf:RDF>
  </metadata>
  <g
     id="layer1"
     transform="translate(-4.6394344,-45.290259)">
    <path
       id="path88"
       d="m 6.5162229,45.290391 c -0.817626,-0.0044 -1.3823729,0.101246 -1.6085783,0.327447 -0.7292119,0.729213 0.040094,3.475844 2.1665443,7.735813 3.1547901,6.319991 7.8185741,13.162318 13.7940801,20.23776 3.479744,4.12028 11.48888,12.09684 15.246114,15.184153 4.832497,3.970851 13.33852,9.840618 16.831038,11.614546 l 1.023655,0.51998 -0.679873,1.00999 c -1.675641,2.48819 -2.675181,4.73881 -3.275473,7.37505 -0.287841,1.26398 -0.348012,3.20382 -0.303464,9.81942 l 0.05564,8.24414 -1.597939,5.38873 c -0.878872,2.96379 -1.780446,6.35875 -2.003648,7.54427 -1.134445,6.02536 1.167159,11.95062 7.046931,18.14049 l 1.663226,1.75084 -0.228182,2.86741 c -0.285572,3.59161 -0.942439,6.85678 -2.040301,10.13819 -1.487846,4.44706 -3.20483,7.49278 -9.704817,17.2168 -4.241516,6.3453 -5.309464,9.15703 -5.655207,14.89068 l -0.173554,2.87907 -2.719184,-1.78881 c -2.590007,-1.70409 -2.784471,-1.78912 -4.098918,-1.78912 -1.017309,0 -1.540086,0.12589 -1.988996,0.47901 -0.334932,0.26345 -0.93502,0.47901 -1.333771,0.47901 -1.038937,0 -1.889498,0.3783 -2.06029,0.91637 -0.08113,0.25566 -0.467586,0.79956 -0.858747,1.20887 -0.627685,0.65682 -0.711203,0.91385 -0.711203,2.1882 0,3.1663 2.179505,6.67696 10.034938,16.16382 3.72725,4.50134 10.589184,11.37717 12.86471,12.89069 1.930686,1.28414 3.958279,2.07795 5.308116,2.07795 1.341632,0 3.314052,-1.06871 4.063937,-2.20186 0.497638,-0.752 0.726689,-0.91297 1.121245,-0.78814 2.441506,0.77241 6.386825,0.63465 10.188164,-0.35544 2.045757,-0.5328 2.210869,-0.44549 2.012653,1.06463 -0.08115,0.61833 -0.0099,1.11891 0.199205,1.3974 0.31078,0.414 0.405795,0.41555 2.077604,0.0353 l 1.752158,-0.3984 0.766485,0.74283 c 1.067992,1.03512 1.675842,0.95844 2.891063,-0.36509 l 1.017318,-1.10825 0.999995,0.90372 c 0.891595,0.8055 1.064373,0.87427 1.591932,0.63391 0.32547,-0.1483 0.828324,-0.75671 1.117585,-1.3521 0.289261,-0.59539 0.60625,-1.0826 0.704193,-1.0826 0.09795,0 0.562303,0.22688 1.031977,0.504 1.052442,0.62094 1.435101,0.49082 1.981671,-0.67357 0.395471,-0.84248 0.508463,-0.91328 1.563284,-0.981 0.652311,-0.0418 1.15364,-0.19521 1.175879,-0.35941 0.02134,-0.15744 0.05815,-0.74511 0.08195,-1.30613 0.02376,-0.56104 0.119371,-1.09639 0.212524,-1.18953 0.09315,-0.0931 2.912351,-0.21299 6.264799,-0.26616 6.498379,-0.10308 6.571429,-0.0899 5.728499,1.02464 -0.193397,0.25569 -0.351773,0.72165 -0.351773,1.03564 0,0.46603 0.252927,0.68086 1.377093,1.16888 1.00349,0.43565 1.47471,0.80029 1.7365,1.34443 0.19758,0.41071 0.65682,0.96406 1.02064,1.22951 0.60033,0.43803 0.76449,0.4548 1.77615,0.18422 1.0969,-0.29339 1.12564,-0.2862 1.78014,0.43037 0.74275,0.81323 1.52609,0.92849 2.58594,0.38042 0.64733,-0.33476 0.70023,-0.31673 1.40472,0.47901 0.82207,0.92855 1.76274,1.08899 2.49566,0.42573 0.41453,-0.37515 0.49745,-0.37515 1.28414,0 0.99966,0.47669 1.68581,0.51272 1.9397,0.10191 0.1017,-0.16451 0.25945,-0.93274 0.35076,-1.70718 0.11076,-0.93934 0.33063,-1.57279 0.66056,-1.90273 l 0.49467,-0.49467 1.74316,0.76017 c 2.92282,1.2743 3.82213,1.52494 5.81276,1.62157 1.27681,0.0619 1.94477,0.1947 2.00697,0.39874 0.146,0.47863 0.80237,1.16995 1.58762,1.67219 0.58762,0.37588 1.0456,0.44259 2.51464,0.36644 1.48826,-0.0772 2.15524,-0.26155 3.88973,-1.07594 7.35719,-3.45444 16.56986,-11.96306 24.68843,-22.80138 3.41819,-4.56328 4.55378,-7.40898 3.27515,-8.20751 -0.26344,-0.16452 -0.47902,-0.51882 -0.47902,-0.78713 0,-0.26832 -0.1677,-0.72723 -0.37274,-1.01998 -0.30679,-0.43799 -0.60116,-0.53232 -1.66223,-0.53232 -0.70923,0 -1.36457,-0.12118 -1.45601,-0.26914 -0.10693,-0.17303 -0.5899,-0.21872 -1.35376,-0.12826 -1.23875,0.1467 -3.70533,1.34992 -6.2598,3.05363 l -1.4054,0.93704 0.14256,-0.6589 c 0.33028,-1.52962 0.43326,-5.04957 0.18621,-6.36273 -0.37788,-2.00866 -2.07187,-5.83712 -4.94067,-11.16651 -1.3784,-2.56062 -2.48167,-4.6709 -2.45169,-4.68953 0.0299,-0.0186 2.47954,-1.03093 5.44335,-2.24949 2.96379,-1.21856 5.54492,-2.36672 5.73582,-2.55162 0.42754,-0.41412 0.34183,-0.53786 -3.74515,-5.41936 -1.62055,-1.93558 -2.86596,-3.56897 -2.76782,-3.62958 0.0981,-0.0606 5.94436,-2.61154 12.99162,-5.66885 14.56902,-6.32048 14.13018,-6.11598 14.13018,-6.58626 0,-0.1933 -4.84983,-5.80872 -10.77742,-12.47863 -5.92761,-6.66991 -10.77745,-12.19827 -10.77745,-12.28509 0,-0.0869 0.61966,-0.32936 1.37708,-0.53898 0.75741,-0.20963 2.9938,-0.83289 4.96966,-1.38506 5.96789,-1.6678 20.11009,-5.44707 28.7384,-7.67986 2.63357,-0.6815 4.97341,-1.33817 5.19985,-1.45935 0.4433,-0.23726 0.94156,-1.74817 2.27048,-6.88705 2.61891,-10.12729 4.97606,-23.468097 5.93002,-33.561832 0.20541,-2.173453 0.42733,-4.51054 0.493,-5.193184 0.10361,-1.076986 0.0576,-1.260684 -0.34577,-1.388734 -0.62494,-0.198351 -6.68337,1.061748 -11.39736,2.370409 -13.82042,3.83673 -30.03647,10.252367 -48.24064,19.085531 l -6.81411,3.30613 -1.37474,-2.06563 -1.37473,-2.06561 4.59658,-2.441362 c 5.19069,-2.757216 6.38499,-3.433313 10.09589,-5.712835 11.40814,-7.007767 21.43008,-16.354024 27.76438,-25.892969 3.21029,-4.834429 6.59658,-11.327463 6.98365,-13.39069 0.19732,-1.05178 -0.21814,-1.291934 -2.57461,-1.488668 -2.18113,-0.182095 -7.60088,0.701312 -11.90568,1.940367 -5.51807,1.588268 -14.40421,5.463216 -19.83104,8.647868 -9.91527,5.818633 -19.38752,13.870452 -27.06418,23.005571 l -2.44335,2.907385 -2.10525,-1.02598 c -3.66771,-1.78736 -8.79671,-3.294365 -14.02627,-4.121587 -2.1709,-0.343397 -4.118895,-0.422576 -10.113224,-0.411391 -6.94862,0.01296 -7.646865,0.05398 -10.897027,0.644566 -5.522753,1.003551 -10.451082,2.792118 -14.842381,5.386387 C 66.39145,88.961968 65.551497,89.33438 65.509353,89.20791 65.317524,88.632501 61.562662,82.572714 60.06233,80.417169 54.180323,71.966522 46.738374,64.49834 38.275264,58.553498 31.20268,53.585415 21.611536,48.811285 14.679421,46.808373 11.33869,45.843127 8.3150051,45.300168 6.5162229,45.290391 Z M 139.36315,155.65339 l 0.39007,0.20187 c 0.89342,0.462 7.5389,4.58884 8.52028,5.29111 l 0.4537,0.32478 -1.36742,0.85076 c -2.97661,1.85215 -10.88418,6.48965 -11.06592,6.48965 -0.049,0 -0.14363,-0.17832 -0.21019,-0.39606 -0.33867,-1.10803 -1.12489,-6.20556 -1.11324,-7.21784 0.001,-0.134 0.36388,-0.65503 0.80512,-1.15754 0.44125,-0.50252 1.42884,-1.69516 2.19486,-2.65023 z"
       style="fill:#000000;stroke-width:0.239499" />
    <g
       transform="matrix(0.64460712,0,0,0.64460712,240.95402,47.914297)"
       id="g62">
      <path
         style="fill:#ffd924;fill-opacity:1;stroke-width:2.02031"
         d="m -650.62607,1128.3706 c -5.42715,-5.1255 -5.70156,-11.2253 -1.154,-25.6518 3.47085,-11.0108 2.23294,-16.9914 -2.02798,-9.7978 -1.30562,2.2043 -4.31345,9.0153 -6.68404,15.1355 -3.22069,8.3149 -5.45412,11.2992 -8.8356,11.806 -5.70292,0.8547 -29.82641,-6.8214 -35.78227,-11.3859 l -4.48134,-3.4345 21.23539,-32.2598 c 41.70152,-63.3508 70.98436,-133.0223 76.56671,-182.17198 1.90022,-16.73057 -1.80391,-18.79489 -5.97089,-3.3276 -8.88896,32.99469 -14.28477,50.09294 -22.27178,70.57485 -18.29766,46.92263 -47.48948,100.82793 -74.60496,137.76473 -7.61667,10.3755 -14.45934,21.7397 -15.20595,25.2538 -1.18551,5.5801 -2.10823,6.3253 -7.28485,5.8839 -3.26007,-0.278 -8.07025,0.6095 -10.68928,1.9723 -4.24541,2.2091 -5.2934,1.8599 -9.66229,-3.2193 -4.68048,-5.4414 -5.12097,-5.5525 -9.81426,-2.4774 -6.53144,4.2796 -9.73027,4.0599 -14.29275,-0.9815 -3.14246,-3.4724 -5.27071,-3.9811 -12.26747,-2.9318 -7.35914,1.1035 -8.63717,0.7283 -9.77961,-2.8712 -1.03234,-3.2526 -8.41861,-10.0442 -16.9188,-15.5566 -0.39901,-0.2588 1.30465,-3.3216 3.78593,-6.8062 4.98142,-6.9958 4.97831,-10.1126 -0.0614,-61.5772 -5.54301,-56.60302 5.26586,-147.52178 25.52177,-214.6761 7.18228,-23.81143 7.85381,-31.67943 2.02325,-23.70567 -4.53819,6.20634 -17.24629,42.48047 -22.53648,64.32837 -14.59937,60.29371 -18.91353,146.0876 -10.12379,201.3275 1.67966,10.5561 3.07026,19.8748 3.09018,20.7082 0.0202,0.8333 -16.91402,1.5152 -37.63101,1.5152 h -37.66726 l 1.19681,-14.6472 c 0.65826,-8.056 2.25492,-24.6478 3.54816,-36.8706 3.13465,-29.6265 1.30552,-116.40917 -3.01579,-143.08423 -6.8851,-42.50059 -19.29717,-90.261 -23.45728,-90.261 -2.65789,0 -2.66963,-0.0925 3.9952,31.50055 11.38886,53.98629 12.65848,66.45008 13.56378,133.15431 0.67361,49.63367 0.10203,70.59017 -2.75471,100.99377 l -3.60469,38.3644 -6.06091,2.8848 c -3.3335,1.5867 -7.10596,4.299 -8.38322,6.0274 -2.05493,2.7807 -2.95439,2.8042 -7.81254,0.2042 -5.30073,-2.8368 -5.71186,-2.6743 -11.91218,4.711 l -6.42198,7.6493 -5.52293,-4.3443 c -6.02437,-4.7388 -4.45829,-5.1822 -19.10702,5.4101 -4.36499,3.1563 -4.87184,3.0902 -9.47648,-1.2357 -4.28335,-4.0239 -5.63968,-4.3001 -11.34721,-2.3105 -9.72191,3.3891 -11.94031,2.8459 -11.94031,-2.9238 0,-7.0947 -2.6365,-11.579 -17.1452,-29.1616 -42.6227,-51.653 -77.8598,-120.45702 -86.9126,-169.70563 -2.0442,-11.12083 -3.1497,-14.14214 -5.1749,-14.14214 -2.7866,0 -2.291,13.5711 1.1599,31.76284 9.166,48.31913 38.4836,103.96793 80.2545,152.33403 l 13.598,15.745 -7.5371,2.0905 c -10.0843,2.7969 -43.0882,5.0347 -49.717,3.371 -5.119,-1.2848 -5.2972,-1.8324 -5.2972,-16.2781 0,-15.0297 -1.1702,-21.3399 -3.9573,-21.3399 -0.8276,0 -2.0647,7.2614 -2.7491,16.1366 -1.3645,17.6944 -4.5469,25.7444 -12.7186,32.1723 -7.3916,5.8142 -14.1264,5.2997 -29.2447,-2.234 -10.0291,-4.9977 -19.1047,-12.6296 -40.2414,-33.8401 -59.2064,-59.4133 -101.0889,-114.77553 -100.9594,-133.45315 0.028,-4.11166 1.1422,-3.04229 5.9897,5.75135 10.8222,19.63183 34.0523,45.7557 37.5643,42.24361 0.4509,-0.45086 -5.5452,-9.21488 -13.3247,-19.4756 -17.3062,-22.82616 -22.6137,-32.88077 -21.7981,-41.29496 0.4639,-4.78649 1.7277,-6.57488 4.973,-7.03739 3.3908,-0.48324 4.8507,0.89372 6.6149,6.23927 5.9336,17.97906 46.6128,68.91707 46.6128,58.36799 0,-0.92003 -6.3972,-9.78412 -14.216,-19.69798 -15.2173,-19.29502 -27.0046,-40.55405 -25.8523,-46.62591 2.1268,-11.20581 26.738,1.9822 67.9973,36.4366 11.4719,9.57985 21.7616,17.4179 22.866,17.4179 3.6366,0 -6.2623,-11.73975 -20.7734,-24.6364 l -14.2683,-12.681 1.4017,-19.22201 c 2.2384,-30.69419 8.0644,-44.95292 40.0159,-97.93596 15.438,-25.59973 31.5016,-53.36351 35.6968,-61.69727 12.9351,-25.69531 21.6836,-56.57248 25.3312,-89.40418 l 1.2912,-11.62243 11.4707,8.81944 c 27.9034,21.45402 92.43262,57.86198 102.55423,57.86198 5.48002,0 2.25432,-2.34686 -22.39316,-16.29222 -27.40027,-15.50285 -52.00357,-31.94355 -72.60747,-48.51856 l -15.6998,-12.62984 10.2994,-3.84205 c 20.692,-7.71878 38.2408,-29.31992 41.775,-51.42153 1.4913,-9.32595 -2.9304,-28.70549 -9.4776,-41.53917 -6.9116,-13.54772 -25.789,-30.69215 -39.4906,-35.86521 -13.712,-5.17699 -31.8586,-4.80014 -42.8623,0.89011 -3.6643,1.89491 -6.9788,3.12891 -7.3655,2.74222 -0.3867,-0.38669 1.9549,-12.49981 5.2035,-26.91802 7.2636,-32.23823 9.9774,-60.51177 9.9999,-104.18548 0.014,-27.92936 0.6739,-35.43217 3.9516,-44.9592 6.1409,-17.84871 17.3131,-37.4913 29.4244,-51.73282 10.5914,-12.45419 12.844,-16.25626 9.6314,-16.25626 -0.8012,0 -6.6809,5.16974 -13.0662,11.48832 -13.7429,13.59958 -9.1387,14.74795 -50.1119,-12.49848 -37.0515,-24.63863 -62.268,-45.18224 -96.6224,-78.71745 -32.2642,-31.49475 -37.6059,-39.89756 -47.5667,-74.82573 -12.9429,-45.385186 -21.9328,-112.126935 -15.1031,-112.126935 4.4467,0 60.6939,30.386957 80.1674,43.309519 30.1739,20.023422 51.3542,37.7066 82.236,68.657826 32.3201,32.39282 54.5397,59.54028 79.0887,96.62916 16.4442,24.84401 20.813,28.86713 25.9724,23.91772 4.5759,-4.38964 35.81401,-18.4385 53.51037,-24.06547 35.61117,-11.32342 50.4871,-13.20092 104.98256,-13.24997 43.06046,-0.0387 52.42528,0.53653 72.01091,4.42362 21.48297,4.26365 46.06904,11.83061 76.12479,23.4292 13.03412,5.02991 13.71658,5.10294 12.52234,1.34017 -0.96304,-3.03422 2.53316,-8.20295 14.71653,-21.75675 66.73841,-74.24552 142.83462,-129.502308 218.95977,-158.996259 12.57226,-4.871004 25.02065,-9.507529 27.66309,-10.30339 l 4.80441,-1.447019 -1.42141,13.855323 c -3.51983,34.30976 -22.14335,114.182385 -30.20451,129.541235 -9.02856,17.20203 -65.33763,57.59539 -132.60981,95.12777 l -29.22087,16.30285 -7.53905,-7.36098 c -4.14649,-4.04853 -8.08427,-6.81576 -8.75063,-6.1494 -0.66638,0.66635 3.3032,7.88038 8.82124,16.03116 25.95452,38.33771 31.28941,58.77724 34.6912,132.91175 1.79076,39.0254 4.71685,59.58744 13.40673,94.21062 l 1.25934,5.01761 -9.83275,-5.2812 c -26.55962,-14.26527 -66.379,5.26504 -84.09172,41.24467 -5.13806,10.43688 -6.6782,16.41652 -7.27567,28.24785 -0.94673,18.74821 1.92594,28.56685 11.4478,39.12803 10.21834,11.33367 20.44213,15.60225 37.76199,15.76616 l 14.14213,0.13375 -13.13198,12.33099 c -19.54195,18.34997 -51.30541,38.56754 -90.40865,57.5455 -43.8939,21.30303 -46.03259,24.66067 -6.0554,9.50671 34.00929,-12.89173 68.94178,-32.42642 92.93993,-51.9732 6.3298,-5.15568 12.55343,-9.60849 13.8303,-9.89515 1.46426,-0.32872 3.67964,7.31253 5.99912,20.69202 7.91654,45.66541 17.78088,72.00901 52.95512,141.42136 32.44238,64.02145 37.81575,79.12978 37.81575,106.32678 v 19.86774 l -13.53299,12.15915 c -27.78625,24.96545 -35.96305,33.29095 -32.73636,33.33165 1.77546,0.022 12.23054,-6.9164 23.23351,-15.41945 11.00296,-8.50306 30.90711,-22.63243 44.23147,-31.39857 31.54524,-20.75379 39.54238,-22.94487 32.89911,-9.01377 -1.7589,3.68843 -9.14004,14.58466 -16.40256,24.21386 -17.60578,23.34307 -18.04241,24.48034 -4.39824,11.45557 14.26303,-13.61552 29.33552,-33.45219 29.33552,-38.60805 0,-2.77452 1.44977,-3.81835 5.3033,-3.81835 4.83867,0 5.19493,0.54184 4.06633,6.18488 -1.60853,8.04257 -11.5549,22.79249 -30.48509,45.20766 -8.38752,9.93162 -15.25004,18.99452 -15.25004,20.13982 0,4.767 34.96708,-33.15404 51.10188,-55.41885 l 3.62471,-5.00184 -1.21565,5.866 c -2.27806,10.99234 -23.48781,38.51386 -61.33978,79.59369 -27.1708,29.4878 -51.37032,51.1197 -75.00366,67.0454 -33.55446,22.6113 -51.322,28.62 -60.10408,20.326 z M -791.54235,572.48203 c 9.16972,-2.50475 20.08939,-10.07791 23.37006,-16.20791 3.64736,-6.81516 0.63015,-6.61232 -8.29161,0.5574 -7.79119,6.26117 -9.50578,6.76881 -22.86234,6.76881 -12.98365,0 -16.51947,-0.96753 -35.06997,-9.59645 -11.34678,-5.27805 -21.9033,-9.59645 -23.45894,-9.59645 -1.55561,0 -10.9092,3.78728 -20.78574,8.41617 -14.28591,6.69547 -20.8487,8.59155 -32.09946,9.27396 -12.82431,0.77788 -15.22108,0.27602 -25.72071,-5.38571 -6.36822,-3.43393 -12.11223,-6.24351 -12.76449,-6.24351 -0.65223,0 0.71057,2.66331 3.02844,5.91849 14.77379,20.74786 46.81077,20.74069 81.22554,-0.0182 l 7.38298,-4.4534 18.96337,9.41126 c 10.42985,5.17621 23.01742,10.20588 27.97236,11.17704 4.95494,0.97118 9.46355,1.8603 10.01914,1.97586 0.55558,0.11556 4.6467,-0.78325 9.09137,-1.99736 z m -206.13811,-75.59656 c 26.00945,-12.53321 35.98963,-42.4554 22.88009,-68.59817 -9.11642,-18.17977 -20.83183,-25.32345 -41.42043,-25.25686 -16.7173,0.0541 -27.2942,4.41806 -36.716,15.14891 -9.5572,10.88498 -12.3569,18.88973 -12.3569,35.32995 0,21.17726 8.2995,34.65968 27.3498,44.42919 9.9666,5.11111 28.4759,4.62703 40.26344,-1.05302 z m 148.55941,0.46043 c 10.82819,-5.47818 1.60558,-12.51739 -13.24299,-10.10779 -4.96915,0.80638 -6.96006,2.18094 -6.96006,4.80533 0,7.14497 10.90424,10.00688 20.20305,5.30246 z m 167.78301,-4.28109 c 31.04508,-20.54464 29.12096,-66.23556 -3.59673,-85.40939 -7.79733,-4.56954 -11.88101,-5.53584 -23.67012,-5.60089 -11.96247,-0.0661 -15.75084,0.80539 -23.62456,5.43406 -22.2358,13.07161 -30.08886,42.23716 -17.82713,66.20816 4.97028,9.71662 16.05492,19.92583 25.43637,23.42748 11.83497,4.41746 33.5504,2.38077 43.28217,-4.05942 z"
         id="path34"
         transform="scale(0.26458333)" />
      <path
         style="fill:#ffd924;fill-opacity:1;stroke-width:2.02031"
         d="m -594.26854,768.89708 c -5.54955,-12.90027 -16.4565,-45.4608 -16.4565,-49.12759 0,-1.5614 17.89821,-13.70066 39.77379,-26.97611 21.87559,-13.27546 40.09642,-25.16057 40.49073,-26.41136 0.39431,-1.2508 -12.94213,-11.55484 -29.63654,-22.89786 l -30.35346,-20.6237 2.7842,-5.38641 c 1.53132,-2.96252 4.81917,-12.08763 7.30635,-20.27801 6.55589,-21.58884 4.98357,-49.721 -4.96622,-88.85597 -7.51573,-29.56124 -9.56304,-45.90096 -13.20047,-105.354 -1.12172,-18.33427 -3.73013,-40.31573 -5.79648,-48.84771 l -3.75698,-15.51267 17.36536,-8.0609 c 9.55095,-4.43349 32.36409,-15.0623 50.69588,-23.61956 113.18351,-52.834 239.93332,-98.09489 299.88365,-107.085 10.94153,-1.64078 10.42789,-4.36135 6.1066,32.34473 -8.31104,70.59567 -15.42615,112.5286 -28.2923,166.7405 -11.95845,50.38722 -13.35591,54.80165 -17.93457,56.65348 -2.30464,0.93211 -30.10069,8.62983 -61.76897,17.10606 -63.50869,16.99853 -158.22567,43.64835 -170.46911,47.96368 l -7.83456,2.76136 15.0513,18.06484 c 8.27821,9.93565 36.1018,42.50568 61.83019,72.37781 25.7284,29.87215 46.36693,54.97957 45.86341,55.79428 -0.50352,0.81471 -22.98329,11.72969 -49.95503,24.2555 -69.3462,32.20471 -102.57762,48.06158 -102.57762,48.94644 0,0.42004 2.26218,3.82993 5.02708,7.57754 2.76489,3.7476 4.65854,7.18236 4.2081,7.63279 -0.45044,0.45045 -5.91226,-2.43916 -12.13738,-6.42132 -6.22512,-3.98216 -13.21758,-7.24029 -15.53879,-7.24029 -4.38825,0 -4.37959,-0.24746 -0.48341,13.82315 l 1.31024,4.7318 -8.25557,-4.21169 c -4.57547,-2.33422 -8.77106,-3.37761 -9.41196,-2.3406 -0.63601,1.0291 0.18338,5.7598 1.82089,10.51269 1.6375,4.75289 2.79026,8.79146 2.56167,8.9746 -0.22858,0.18324 -2.33946,0.92312 -4.69086,1.64443 -3.64478,1.11804 -4.90752,-0.15839 -8.56266,-8.65493 z"
         id="path36"
         transform="scale(0.26458333)" />
    </g>
    <g
       transform="matrix(0.64460712,0,0,0.64460712,240.95402,47.914297)"
       id="g58">
      <path
         style="fill:#fe3310;fill-opacity:1;stroke-width:1.01015"
         d="m -1086.0447,647.48615 c -3.2611,-1.34172 -15.5065,-14.18614 -23.1018,-24.23198 -7.8823,-10.42542 -16.5612,-27.6117 -20.1497,-39.90103 -2.278,-7.80156 -2.6471,-10.93511 -2.6011,-22.08718 0.063,-15.26104 1.3749,-22.77773 4.4852,-25.69635 1.2261,-1.15055 5.3703,-3.56107 9.2093,-5.35672 6.4411,-3.01269 7.9622,-3.29934 19.698,-3.71205 l 12.718,-0.44725 9.5964,4.88496 c 13.5585,6.90178 25.0065,18.28906 31.5585,31.391 6.0758,12.14973 8.1238,21.45992 7.6779,34.90359 -0.309,9.31855 -0.6881,11.11062 -3.5869,16.95767 -6.269,12.64483 -16.5207,22.62146 -30.0937,29.28644 -9.2779,4.55589 -12.2201,5.32131 -15.4101,4.0089 z"
         id="path38"
         transform="scale(0.26458333)" />
      <path
         style="fill:#fe3310;fill-opacity:1;stroke-width:1.01015"
         d="m -654.49358,648.17326 c -14.03758,-3.58723 -22.96222,-11.56181 -26.82347,-23.968 -2.37881,-7.64315 -2.60292,-25.72478 -0.43288,-34.92667 4.64209,-19.68449 20.8645,-40.49871 38.66561,-49.61007 10.65762,-5.45502 15.74422,-6.66328 25.74187,-6.11467 12.09973,0.66396 21.57389,5.9088 26.83295,14.85456 2.56457,4.3624 2.7249,5.36575 2.67839,16.76198 -0.0752,18.43777 -4.17141,35.18868 -12.84486,52.52794 -9.61294,19.2174 -15.36328,25.87656 -24.97064,28.91718 -8.15027,2.57946 -21.93569,3.32389 -28.84697,1.55775 z"
         id="path40"
         transform="scale(0.26458333)" />
    </g>
    <path
       id="path44"
       d="m 142.18051,184.73983 c -0.81189,-1.62483 -1.49237,-3.03252 -1.51217,-3.12821 -0.0248,-0.12031 0.13313,-0.20317 0.5122,-0.26858 1.72883,-0.29826 1.80328,-0.43548 1.18443,-2.18323 -0.23596,-0.66639 -0.41203,-1.21162 -0.39128,-1.21162 0.0207,0 0.38528,0.16447 0.81007,0.36548 1.55361,0.73518 2.00354,0.61594 1.95405,-0.51781 -0.0153,-0.35175 -0.10734,-0.93848 -0.20442,-1.30387 -0.0971,-0.36542 -0.152,-0.68886 -0.12208,-0.71877 0.0299,-0.0299 0.67203,0.36194 1.42693,0.87079 1.64041,1.10574 2.61917,1.57445 3.3289,1.59416 0.66379,0.0184 0.85864,0.19864 2.73735,2.53171 1.80414,2.24047 1.81805,2.26515 1.44236,2.55741 -0.69144,0.53794 -9.08369,4.36674 -9.57133,4.36674 -0.0653,0 -0.78313,-1.32939 -1.59501,-2.9542 z"
       style="fill:#cf4310;fill-opacity:1;stroke-width:0.121823" />
    <g
       transform="matrix(0.64460712,0,0,0.64460712,240.95402,47.914297)"
       id="g54">
      <path
         style="fill:#ffffff;fill-opacity:1;stroke-width:0.505076"
         d="m -1009.9866,452.04629 c -1.4867,-0.53175 -3.305,-1.41277 -4.0406,-1.95782 -4.751,-3.52019 -8.103,-12.39339 -7.4942,-19.83813 0.5978,-7.30996 4.4863,-13.13915 10.8573,-16.2759 7.3928,-3.63985 18.10168,-2.04948 23.43103,3.47971 5.29115,5.48956 6.6645,15.49545 3.32469,24.2229 -1.39544,3.64651 -6.07897,8.81166 -9.11723,10.05477 -3.37447,1.38067 -13.45729,1.56762 -16.96099,0.31447 z"
         id="path48"
         transform="scale(0.26458333)" />
      <path
         style="fill:#ffffff;fill-opacity:1;stroke-width:0.505076"
         d="m -728.86222,452.96995 c -9.22061,-2.33758 -15.13016,-11.43906 -14.35573,-22.1097 0.86713,-11.94788 11.66043,-20.32391 23.63994,-18.34553 7.97642,1.31728 12.37185,4.91538 14.87953,12.18041 1.47529,4.27408 1.33172,13.35319 -0.2755,17.42141 -1.73139,4.38254 -5.78881,8.30691 -10.12285,9.79089 -3.70725,1.26937 -10.7923,1.81624 -13.76539,1.06252 z"
         id="path50"
         transform="scale(0.26458333)" />
    </g>
  </g>
</svg>
