<?xml version="1.0" encoding="UTF-8" ?>
<!DOCTYPE svg PUBLIC "-//W3C//DTD SVG 1.1//EN" "http://www.w3.org/Graphics/SVG/1.1/DTD/svg11.dtd">
<svg width="1250pt" height="1100pt" viewBox="0 0 1250 1100" version="1.1" xmlns="http://www.w3.org/2000/svg">
<g id="#000000ff">
<path fill="#000000" opacity="1.00" d=" M 601.08 10.43 C 607.40 10.22 613.68 9.30 620.02 9.62 C 650.88 9.97 681.92 13.95 711.33 23.58 C 745.16 34.49 776.73 52.91 801.90 78.11 C 828.22 104.37 847.08 137.61 857.91 173.08 C 870.71 214.65 873.48 258.78 870.09 301.98 C 866.28 349.02 853.87 395.45 832.77 437.71 C 855.31 457.12 874.76 479.92 891.79 504.25 C 921.71 547.19 943.87 595.17 960.09 644.82 C 983.19 715.95 994.32 790.53 997.89 865.10 C 998.47 871.28 997.93 877.60 996.41 883.62 C 995.28 887.98 992.03 892.49 987.07 892.44 C 979.70 892.17 973.56 887.41 967.94 883.12 C 949.38 867.55 934.32 848.34 919.49 829.32 C 912.12 865.13 900.13 900.21 881.67 931.87 C 867.21 956.81 848.89 979.56 827.29 998.68 C 796.07 1026.45 758.15 1046.24 718.04 1057.64 C 673.35 1070.29 626.19 1073.36 580.07 1068.55 C 565.21 1066.91 550.44 1064.43 535.92 1060.90 C 494.23 1050.82 454.39 1032.06 421.29 1004.62 C 398.21 985.63 378.57 962.58 363.04 937.07 C 344.41 906.53 331.79 872.60 323.99 837.77 C 312.14 852.55 300.01 867.23 285.89 879.91 C 280.19 884.73 274.20 889.71 266.93 891.90 C 263.22 893.12 258.58 892.35 256.21 889.03 C 252.33 883.53 252.25 876.47 251.82 870.03 C 255.81 782.19 269.79 693.98 301.73 611.72 C 322.47 558.53 350.84 507.77 389.16 465.19 C 396.24 457.09 404.63 450.19 410.76 441.28 C 390.53 402.33 378.08 359.52 372.93 315.98 C 369.09 282.52 369.12 248.53 374.12 215.19 C 379.33 180.67 390.42 146.77 408.84 116.99 C 425.27 90.21 447.74 67.20 474.05 50.04 C 511.71 25.42 556.41 13.01 601.08 10.43 M 538.95 106.46 C 523.66 108.91 508.97 114.68 495.83 122.83 C 474.81 135.91 457.73 154.78 445.32 176.09 C 430.96 200.65 422.44 228.45 419.56 256.71 C 415.55 294.67 421.43 333.92 437.74 368.53 C 452.42 399.88 476.46 427.80 508.04 442.87 C 482.85 474.20 464.86 510.75 451.57 548.53 C 438.42 586.15 430.08 625.35 425.44 664.90 C 420.47 709.98 419.77 755.66 425.00 800.76 C 429.49 838.14 438.47 875.45 455.80 909.08 C 467.69 931.96 483.60 953.00 503.79 969.19 C 522.57 984.47 544.77 995.35 568.14 1001.55 C 594.91 1008.60 623.01 1010.23 650.50 1007.30 C 676.98 1004.53 703.14 996.77 726.11 983.14 C 756.46 965.48 780.01 937.70 795.53 906.45 C 814.91 867.46 823.64 824.01 826.88 780.85 C 828.21 763.94 828.79 746.96 828.59 730.00 C 828.59 717.24 827.55 704.52 827.21 691.77 L 826.79 691.11 C 825.82 671.89 823.23 652.77 820.11 633.79 C 814.83 602.62 807.01 571.83 796.14 542.13 C 783.05 506.62 765.69 472.32 741.86 442.76 C 751.33 437.96 760.37 432.29 768.52 425.46 C 796.56 402.22 815.07 368.97 824.23 334.01 C 835.34 290.73 833.07 243.92 816.80 202.22 C 804.40 170.65 783.42 141.66 754.49 123.38 C 737.58 112.64 717.93 106.01 697.87 105.10 C 671.92 103.61 645.92 112.02 624.78 126.93 C 607.42 114.91 587.08 106.81 565.92 105.31 C 556.93 105.10 547.82 104.72 538.95 106.46 Z" />
<path fill="#000000" opacity="1.00" d=" M 681.90 214.00 C 686.06 210.07 692.47 208.21 697.92 210.43 C 704.18 212.61 708.35 218.32 710.90 224.18 C 715.56 235.45 715.40 248.73 710.12 259.76 C 707.07 266.14 701.38 272.14 693.95 272.69 C 687.89 273.28 682.41 269.59 678.84 264.99 C 672.30 256.51 670.81 245.27 671.82 234.87 C 673.12 227.19 675.93 219.31 681.90 214.00 M 694.11 218.09 C 690.36 219.40 688.44 223.37 687.69 227.02 C 686.66 232.10 687.52 238.01 691.28 241.83 C 693.88 244.75 699.05 244.48 701.41 241.40 C 705.23 237.13 705.38 230.90 704.28 225.57 C 703.07 221.27 699.10 216.40 694.11 218.09 Z" />
<path fill="#000000" opacity="1.00" d=" M 538.85 224.77 C 541.38 218.69 545.60 212.71 552.05 210.44 C 557.74 208.09 564.40 210.24 568.61 214.47 C 574.25 219.78 576.90 227.41 578.18 234.88 C 579.01 243.93 578.10 253.45 573.51 261.46 C 570.16 267.44 564.21 272.88 556.97 272.74 C 549.75 272.67 543.87 267.25 540.63 261.21 C 534.69 250.13 534.29 236.41 538.85 224.77 M 558.96 217.97 C 555.34 218.90 553.23 222.47 552.22 225.82 C 550.93 231.15 551.44 237.50 555.38 241.64 C 557.89 244.62 563.10 244.61 565.52 241.53 C 569.72 236.89 570.06 229.77 568.01 224.10 C 566.64 220.54 563.11 216.85 558.96 217.97 Z" />
</g>
<g id="#ffffffff">
<path fill="#ffffff" opacity="1.00" d=" M 538.95 106.46 C 547.82 104.72 556.93 105.10 565.92 105.31 C 587.08 106.81 607.42 114.91 624.78 126.93 C 645.92 112.02 671.92 103.61 697.87 105.10 C 717.93 106.01 737.58 112.64 754.49 123.38 C 783.42 141.66 804.40 170.65 816.80 202.22 C 833.07 243.92 835.34 290.73 824.23 334.01 C 815.07 368.97 796.56 402.22 768.52 425.46 C 760.37 432.29 751.33 437.96 741.86 442.76 C 765.69 472.32 783.05 506.62 796.14 542.13 C 807.01 571.83 814.83 602.62 820.11 633.79 C 823.23 652.77 825.82 671.89 826.79 691.11 L 827.21 691.77 C 827.55 704.52 828.59 717.24 828.59 730.00 C 828.79 746.96 828.21 763.94 826.88 780.85 C 823.64 824.01 814.91 867.46 795.53 906.45 C 780.01 937.70 756.46 965.48 726.11 983.14 C 703.14 996.77 676.98 1004.53 650.50 1007.30 C 623.01 1010.23 594.91 1008.60 568.14 1001.55 C 544.77 995.35 522.57 984.47 503.79 969.19 C 483.60 953.00 467.69 931.96 455.80 909.08 C 438.47 875.45 429.49 838.14 425.00 800.76 C 419.77 755.66 420.47 709.98 425.44 664.90 C 430.08 625.35 438.42 586.15 451.57 548.53 C 464.86 510.75 482.85 474.20 508.04 442.87 C 476.46 427.80 452.42 399.88 437.74 368.53 C 421.43 333.92 415.55 294.67 419.56 256.71 C 422.44 228.45 430.96 200.65 445.32 176.09 C 457.73 154.78 474.81 135.91 495.83 122.83 C 508.97 114.68 523.66 108.91 538.95 106.46 M 681.90 214.00 C 675.93 219.31 673.12 227.19 671.82 234.87 C 670.81 245.27 672.30 256.51 678.84 264.99 C 682.41 269.59 687.89 273.28 693.95 272.69 C 701.38 272.14 707.07 266.14 710.12 259.76 C 715.40 248.73 715.56 235.45 710.90 224.18 C 708.35 218.32 704.18 212.61 697.92 210.43 C 692.47 208.21 686.06 210.07 681.90 214.00 M 538.85 224.77 C 534.29 236.41 534.69 250.13 540.63 261.21 C 543.87 267.25 549.75 272.67 556.97 272.74 C 564.21 272.88 570.16 267.44 573.51 261.46 C 578.10 253.45 579.01 243.93 578.18 234.88 C 576.90 227.41 574.25 219.78 568.61 214.47 C 564.40 210.24 557.74 208.09 552.05 210.44 C 545.60 212.71 541.38 218.69 538.85 224.77 M 591.61 299.82 C 582.56 301.89 573.35 304.42 565.55 309.65 C 561.96 312.12 558.40 315.46 557.66 319.97 C 557.05 323.06 559.07 325.77 560.89 328.03 C 566.18 334.15 572.69 339.04 579.19 343.79 C 593.86 354.28 609.33 363.60 625.00 372.50 C 644.33 361.37 663.70 350.01 681.04 335.89 C 685.25 332.08 690.03 328.33 692.21 322.91 C 693.28 318.02 689.72 313.63 686.08 310.85 C 677.81 304.61 667.56 301.89 657.61 299.66 C 635.88 295.52 613.32 295.57 591.61 299.82 Z" />
<path fill="#ffffff" opacity="1.00" d=" M 558.96 217.97 C 563.11 216.85 566.64 220.54 568.01 224.10 C 570.06 229.77 569.72 236.89 565.52 241.53 C 563.10 244.61 557.89 244.62 555.38 241.64 C 551.44 237.50 550.93 231.15 552.22 225.82 C 553.23 222.47 555.34 218.90 558.96 217.97 Z" />
<path fill="#ffffff" opacity="1.00" d=" M 694.11 218.09 C 699.10 216.40 703.07 221.27 704.28 225.57 C 705.38 230.90 705.23 237.13 701.41 241.40 C 699.05 244.48 693.88 244.75 691.28 241.83 C 687.52 238.01 686.66 232.10 687.69 227.02 C 688.44 223.37 690.36 219.40 694.11 218.09 Z" />
</g>
<g id="#f89520ff">
<path fill="#f89520" opacity="1.00" d=" M 591.61 299.82 C 613.32 295.57 635.88 295.52 657.61 299.66 C 667.56 301.89 677.81 304.61 686.08 310.85 C 689.72 313.63 693.28 318.02 692.21 322.91 C 690.03 328.33 685.25 332.08 681.04 335.89 C 663.70 350.01 644.33 361.37 625.00 372.50 C 609.33 363.60 593.86 354.28 579.19 343.79 C 572.69 339.04 566.18 334.15 560.89 328.03 C 559.07 325.77 557.05 323.06 557.66 319.97 C 558.40 315.46 561.96 312.12 565.55 309.65 C 573.35 304.42 582.56 301.89 591.61 299.82 Z" />
<path fill="#f89520" opacity="1.00" d=" M 718.04 1057.64 C 758.15 1046.24 796.07 1026.45 827.29 998.68 C 839.85 1007.53 852.02 1017.90 859.46 1031.59 C 861.52 1035.71 863.63 1040.24 863.13 1044.98 C 862.39 1049.10 857.42 1049.90 853.96 1049.29 C 843.68 1047.73 834.25 1043.00 825.06 1038.36 C 831.91 1046.92 837.73 1056.63 840.24 1067.41 C 840.91 1071.35 841.96 1075.68 840.27 1079.52 C 838.11 1083.49 833.16 1084.45 829.03 1084.58 C 821.47 1084.59 814.06 1082.47 807.13 1079.61 C 798.40 1075.88 790.04 1070.68 784.09 1063.16 C 787.43 1070.22 791.06 1077.90 789.56 1085.93 C 788.90 1088.93 785.54 1089.36 783.12 1090.29 C 776.08 1090.87 769.13 1089.15 762.37 1087.39 C 745.02 1082.32 729.20 1071.92 718.04 1057.64 Z" />
<path fill="#f89520" opacity="1.00" d=" M 397.02 1031.78 C 402.78 1020.93 411.79 1012.22 421.29 1004.62 C 454.39 1032.06 494.23 1050.82 535.92 1060.90 C 522.39 1076.44 503.17 1086.80 482.82 1089.88 C 477.85 1090.73 472.06 1091.01 467.86 1087.76 C 465.76 1084.25 466.55 1079.88 467.42 1076.13 C 468.56 1071.78 470.34 1067.64 472.35 1063.64 C 463.59 1073.61 451.31 1080.03 438.55 1083.21 C 432.12 1084.59 424.73 1085.85 418.78 1082.26 C 414.62 1079.63 415.34 1074.12 415.87 1069.95 C 417.55 1059.86 422.53 1050.63 428.44 1042.41 C 429.41 1040.80 431.28 1039.64 431.59 1037.72 C 429.15 1040.09 425.81 1041.09 422.84 1042.61 C 415.86 1045.76 408.62 1048.83 400.90 1049.43 C 397.89 1049.64 393.91 1048.46 393.47 1044.98 C 392.90 1040.31 395.03 1035.86 397.02 1031.78 Z" />
</g>
</svg>
